<svg width="270" height="247" viewBox="0 0 270 247" fill="none" xmlns="http://www.w3.org/2000/svg">
<path d="M93.5178 238.89C78.0651 243.299 62.6462 244.818 46.5588 240.705C28.6277 236.118 13.8604 219.603 5.9368 203.558C2.99265 197.599 0.764538 191.006 1.52324 184.404C3.28164 169.152 17.8447 168.348 29.9606 171.591C36.7905 173.416 42.9434 176.983 49.0261 180.514C59.1246 186.38 71.1929 189.71 80.0866 197.521C83.0705 200.149 85.2428 203.218 88.7763 205.216C94.2728 208.325 100.662 210.031 106.328 212.902C111.164 215.364 116.499 219.25 116.168 224.665C115.821 230.218 109.806 233.393 104.577 235.285C100.876 236.634 97.1986 237.846 93.5178 238.89Z" fill="url(#paint0_linear)"/>
<path d="M50.239 38.0288C77.2897 3.08462 129.416 -8.36124 170.064 7.96043C189.665 15.8343 205.576 30.6699 220.151 45.9489C232.998 59.4154 245.377 73.8476 253.674 90.6447C259.34 102.11 263.061 115.662 265.499 128.248C269.142 147.094 263.282 170.715 239.419 167.462C233.821 166.7 229.081 164.372 223.932 162.274C219.767 160.573 215.544 161.172 211.17 160.194C200.16 157.737 189.705 152.972 179.876 147.543C159.845 136.468 141.815 121.998 121.122 112.097C104.163 103.992 85.8105 99.2059 67.0534 97.9975C59.1401 97.4888 50.7841 97.5214 43.9264 93.5392C27.0246 83.7162 36.3457 60.6674 43.6918 47.8334C45.6392 44.4142 47.8271 41.1378 50.239 38.0288Z" fill="url(#paint1_linear)"/>
<path d="M244.06 55.7004C247.906 59.6484 263.293 70.7325 264.343 58.9221C264.6 55.9796 263.443 53.0344 261.759 50.7622C259.833 48.1546 257.554 46.7073 256.11 43.7194C254.339 40.1101 252.281 36.6932 249.961 33.5128C245.225 26.8992 239.6 20.7102 232.495 17.6646C227.511 15.5306 218.853 15.4463 216.022 21.8273C211.899 31.1161 226.873 33.8034 231.256 37.5572C235.415 41.111 237.535 46.9024 240.712 51.5987C241.716 53.0796 242.837 54.4527 244.06 55.7004Z" fill="url(#paint2_linear)"/>
<path d="M169.395 39.4106C177.712 45.0359 183.713 53.0521 191.203 59.6745C203.672 70.6985 221.509 73.9114 236.097 81.9484C250.971 90.1481 261.84 102.124 266.058 118.667C271.507 140.021 270.591 164.952 263.499 186.11C255.69 209.4 239.85 224.203 217.473 233.335C195.11 242.461 170.758 245.849 146.712 245.356C144.391 245.31 142.077 245.219 139.757 245.089C87.6372 242.128 19.4369 219.445 5.20488 162.364C5.07432 161.843 4.95053 161.322 4.82674 160.793C3.38958 154.443 2.71782 147.944 2.82579 141.434C3.15159 118.353 8.77013 93.2059 18.1892 72.1389C24.5252 57.9556 36.979 46.4074 49.8395 38.4289C67.9084 27.2202 89.212 25.4052 110.312 25.2463C125.937 25.1293 143.457 25.8265 157.795 32.6983C161.824 34.6428 165.701 36.8865 169.395 39.4106Z" fill="url(#paint3_linear)"/>
<path d="M66.3903 72.7599C66.3903 72.7599 119.466 143.627 132.743 149.487C146.024 155.35 162.672 154.03 164.128 160.828C165.584 167.63 136.255 156.125 140.934 166.617C145.613 177.113 163.847 189.093 163.932 199.659C164.021 210.229 134.918 176.972 134.918 176.972C134.918 176.972 162.339 207.399 153.259 208.118C144.175 208.838 120.688 179.09 120.688 179.09C120.688 179.09 146.961 218.114 138.252 214.549C129.546 210.985 48.8047 117.617 36.3537 107.737C23.9026 97.8608 66.3903 72.7599 66.3903 72.7599Z" fill="#E27B5A"/>
<path d="M220.787 89.9623C220.787 89.9623 160.251 154.554 146.407 158.919C132.563 163.281 116.163 160.139 113.966 166.734C111.773 173.331 142.187 165.128 136.382 175.045C130.581 184.958 111.143 194.857 109.895 205.353C108.65 215.845 141.228 185.997 141.228 185.997C141.228 185.997 110.628 213.219 119.575 214.933C128.525 216.65 155.138 189.669 155.138 189.669C155.138 189.669 124.735 225.566 133.782 222.981C142.828 220.396 233.338 136.485 246.797 128.036C260.259 119.588 220.787 89.9623 220.787 89.9623Z" fill="#FFCEB0"/>
<path d="M169.25 134.812C169.25 134.812 187.869 170.069 204.986 173.82C222.099 177.571 259.071 144.104 267.138 127.527C275.208 110.953 235.877 60.7967 227.46 53.5826C215.301 52.0982 160.618 103.385 169.25 134.812Z" fill="#FB4C47"/>
<path d="M53.7211 38.5534C53.7211 38.5534 114.959 98.9063 112.058 114.577C109.159 130.251 85.7757 149.026 66.9172 155.174C48.0586 161.32 6.82991 136.563 6.82991 118.51C3.82353 87.8497 19.4548 55.9875 53.7211 38.5534Z" fill="#128E5A"/>
<defs>
<linearGradient id="paint0_linear" x1="0.049023" y1="186.432" x2="12.322" y2="241.875" gradientUnits="userSpaceOnUse">
<stop stop-color="#FFD0D0"/>
<stop offset="1" stop-color="#FFF8F8"/>
</linearGradient>
<linearGradient id="paint1_linear" x1="302.134" y1="59.1451" x2="129.126" y2="7.61231" gradientUnits="userSpaceOnUse">
<stop stop-color="#FFF8F8"/>
<stop offset="1" stop-color="#FFD0D0"/>
</linearGradient>
<linearGradient id="paint2_linear" x1="264.772" y1="58.7407" x2="206.155" y2="29.2435" gradientUnits="userSpaceOnUse">
<stop stop-color="#FFD0D0"/>
<stop offset="1" stop-color="#FFF7F7"/>
</linearGradient>
<linearGradient id="paint3_linear" x1="240.552" y1="227.528" x2="7.21551" y2="72.1506" gradientUnits="userSpaceOnUse">
<stop stop-color="#FFCFCF"/>
<stop offset="1" stop-color="#FFF8F8"/>
</linearGradient>
</defs>
</svg>
