<svg width="1171" height="873" viewBox="0 0 1171 873" fill="none" xmlns="http://www.w3.org/2000/svg">
<path d="M541.103 722.831C505.933 743.162 469.064 756.386 427.087 756.213C380.298 756.016 333.915 724.621 304.602 690.165C293.712 677.367 284.187 662.576 281.98 645.921C276.894 607.444 312.104 596.499 343.809 596.987C361.679 597.253 378.962 602.206 396.051 607.116C424.425 615.277 456.066 616.005 482.684 629.678C491.62 634.283 498.837 640.469 508.731 643.19C524.123 647.426 540.839 647.672 556.499 651.221C569.875 654.278 585.35 660.518 587.872 673.999C590.442 687.827 577.652 699.319 565.998 707.178C557.754 712.767 549.485 718.002 541.103 722.831Z" fill="url(#paint0_linear)"/>
<path d="M292.8 267.685C333.797 157.432 457.155 86.9831 573.386 96.1937C629.435 100.644 681.635 125.711 730.792 152.964C774.122 176.984 817.026 203.829 851.439 239.921C874.934 264.556 895.141 296.035 911.325 326.079C935.538 371.07 939.394 435.736 876.184 446.41C861.353 448.916 847.465 446.764 832.717 445.517C820.784 444.501 810.528 449.375 798.64 450.363C768.718 452.857 738.371 449.048 709.088 443.054C649.407 430.812 592.113 408.355 531.679 399.621C482.158 392.487 431.73 394.892 383.113 406.708C362.604 411.695 341.399 418.41 320.815 413.734C270.076 402.19 275.467 336.231 283.946 297.793C286.18 287.56 289.139 277.499 292.8 267.685V267.685Z" fill="url(#paint1_linear)"/>
<path d="M792.509 161.679C804.569 168.201 849.33 183.109 843.062 154.285C841.49 147.107 836.558 140.971 830.873 136.825C824.365 132.061 817.882 130.314 812.235 124.29C805.354 117.033 797.931 110.445 790.063 104.614C773.912 92.4214 755.963 81.8969 736.832 79.9346C723.415 78.5635 702.791 84.7857 700.803 102.038C697.901 127.154 735.452 122.429 748.644 128.092C761.158 133.446 770.486 145.627 781.515 154.422C784.998 157.194 788.678 159.623 792.509 161.679V161.679Z" fill="url(#paint2_linear)"/>
<path d="M588.693 174.827C614.289 182.519 635.899 198.124 660.184 209.006C700.615 227.12 748.483 221.127 791.926 229.97C836.226 238.999 873.347 260.801 897.191 299.487C927.983 349.418 945.44 413.489 944.213 472.875C942.855 538.246 914.356 588.428 864.751 629.388C815.174 670.325 755.988 698.257 694.502 716.089C688.569 717.814 682.618 719.419 676.619 720.929C541.845 754.768 350.562 751.261 269.102 617.528C268.357 616.306 267.629 615.08 266.895 613.836C258.204 598.843 251.339 582.863 246.447 566.237C228.957 507.334 223.276 438.982 230.488 377.981C235.331 336.916 260.321 304.898 286.664 274.42C323.678 231.601 373.853 202.877 427.337 185.728C466.942 173.031 512.012 160.897 553.895 166.978C565.674 168.721 577.306 171.345 588.693 174.827Z" fill="url(#paint3_linear)"/>
<path d="M902.258 591.85C878.601 624.876 850.465 652.125 812.151 669.277C769.444 688.392 714.243 678.916 673.33 659.613C658.132 652.445 643.355 642.897 634.476 628.635C613.977 595.678 641.541 571.187 670.626 558.559C687.016 551.433 704.803 548.818 722.397 546.245C751.611 541.979 780.737 529.595 810.625 531.075C820.664 531.586 829.79 534.246 839.926 532.645C855.695 530.157 871.026 523.488 886.756 520.264C900.201 517.533 916.873 516.838 924.73 528.078C932.773 539.616 925.86 555.36 918.484 567.325C913.277 575.816 907.903 583.996 902.258 591.85Z" fill="url(#paint4_linear)"/>
<path d="M506.431 412.303C506.091 412.303 505.747 412.194 505.455 411.969C505.187 411.759 498.859 406.76 494.026 396.563C489.594 387.211 485.658 371.535 492.066 349.922C496.412 335.26 500.768 324.837 504.608 315.635C511.583 298.941 516.623 286.879 517.03 261.307C517.043 260.432 517.688 259.681 518.643 259.742C519.524 259.758 520.224 260.477 520.212 261.358C519.795 287.54 514.389 300.481 507.545 316.863C503.733 325.989 499.416 336.329 495.117 350.828C483.431 390.231 507.17 409.27 507.411 409.455C508.102 409.996 508.226 410.995 507.688 411.689C507.373 412.093 506.906 412.303 506.431 412.303Z" fill="#000C3E"/>
<path d="M636.799 161.036C636.561 178.37 622.316 192.233 604.979 191.994C587.645 191.756 573.785 177.511 574.02 160.174C574.259 142.84 588.507 128.98 605.841 129.216C623.175 129.454 637.038 143.702 636.799 161.036Z" fill="#000C3E"/>
<path d="M503.394 401.09C503.394 401.09 513.05 419.859 550.808 425.646C588.563 431.431 617.749 417.126 647.024 426.963C676.299 436.805 717.906 422.092 725.928 409.699C733.952 397.306 729.001 262.283 705.577 240.18C682.153 218.076 561.791 202.021 536.433 229.139C511.075 256.26 486.55 386.269 503.394 401.09Z" fill="#000C3E"/>
<path d="M717.938 289.381C717.155 346.509 670.209 392.186 613.078 391.403C555.949 390.62 510.272 343.671 511.055 286.543C511.841 229.415 558.788 183.738 615.916 184.52C673.044 185.306 718.721 232.253 717.938 289.381Z" fill="#000C3E"/>
<path d="M529.966 286.087C529.966 286.087 537.198 411.521 622.201 414.925C707.201 418.33 702.915 241.46 671.801 225.364C640.687 209.271 512.587 215.472 529.966 286.087Z" fill="#FFCEB0"/>
<path d="M617.744 310.892C617.744 310.892 634.871 349.146 630.76 351.806C626.65 354.462 614.432 354.297 611.075 351.535C607.718 348.773 611.011 306.727 617.744 310.892Z" fill="#F5A473"/>
<path d="M592.633 324.427C592.522 328.83 588.863 332.311 584.459 332.2C580.056 332.092 576.575 328.433 576.686 324.029C576.794 319.626 580.453 316.145 584.86 316.253C589.264 316.364 592.745 320.023 592.633 324.427Z" fill="#41294A"/>
<path d="M661.01 319.046C660.899 323.449 657.24 326.93 652.836 326.819C648.433 326.711 644.952 323.052 645.063 318.648C645.171 314.244 648.83 310.764 653.237 310.872C657.641 310.983 661.121 314.642 661.01 319.046Z" fill="#41294A"/>
<path d="M595.202 217.554C595.202 217.554 565.118 232.995 559.986 260.759C554.851 288.523 559.525 359.192 527.205 356.714C527.205 356.714 461.451 218.197 595.202 217.554" fill="#41294A"/>
<path d="M611.256 217.774C608.542 219.817 642.679 218.923 662.759 242.121C682.842 265.319 688.881 324.343 691.926 325.368C694.97 326.396 705.257 251.736 683.328 229.9C661.4 208.067 626.7 206.151 611.256 217.774Z" fill="#41294A"/>
<path d="M684.724 330.584C684.724 330.584 692.103 298.964 706.542 309.814C720.98 320.664 708.937 353.808 694.998 357.12C681.062 360.432 677.371 346.967 684.724 330.584Z" fill="#FFCEB0"/>
<path d="M550.746 328.747C550.746 328.747 544.236 296.936 529.505 307.385C514.776 317.834 525.906 351.299 539.747 354.993C553.59 358.684 557.647 345.327 550.746 328.747Z" fill="#FFCEB0"/>
<path d="M649.183 290.911C649.183 290.911 664.195 282.992 673.444 294.37C681.58 304.373 663.011 296.266 656.177 297.561C649.339 298.859 640.309 298.293 649.183 290.911Z" fill="#41294A"/>
<path d="M589.527 293.794C589.527 293.794 574.13 286.651 565.473 298.484C557.859 308.891 575.988 299.845 582.883 300.794C589.775 301.739 598.766 300.711 589.527 293.794Z" fill="#41294A"/>
<path d="M643.732 375.181C643.732 375.181 633.939 360.382 623.344 361.315C612.745 362.25 604.622 375.89 603.197 376.463C603.197 376.463 619.735 384.229 643.732 375.181" fill="#41294A"/>
<path d="M584.172 306.668C570.914 306.668 559.978 317.461 559.794 330.722C559.708 337.232 562.158 343.392 566.701 348.062C571.245 352.73 577.331 355.349 583.845 355.438L584.185 355.441C597.443 355.441 608.379 344.652 608.56 331.39C608.745 317.947 597.959 306.859 584.513 306.671L584.172 306.668ZM584.185 358.623L583.8 358.619C576.437 358.521 569.555 355.555 564.42 350.28C559.285 345.002 556.513 338.04 556.612 330.677C556.819 315.685 569.183 303.486 584.172 303.486L584.557 303.49C599.756 303.7 611.949 316.236 611.742 331.432C611.538 346.424 599.174 358.623 584.185 358.623Z" fill="#FFFCF6"/>
<path d="M653.038 301.156C639.776 301.156 628.841 311.949 628.659 325.21C628.475 338.65 639.264 349.741 652.707 349.926L653.047 349.929C666.309 349.929 677.244 339.14 677.426 325.878C677.515 319.365 675.062 313.206 670.521 308.535C665.978 303.87 659.891 301.249 653.378 301.16L653.038 301.156ZM653.047 353.111L652.665 353.108C637.463 352.898 625.271 340.362 625.478 325.166C625.684 310.173 638.045 297.975 653.038 297.975L653.423 297.978C660.785 298.076 667.667 301.042 672.8 306.317C677.938 311.596 680.709 318.557 680.607 325.92C680.401 340.912 668.036 353.111 653.047 353.111Z" fill="#FFFCF6"/>
<path d="M558.886 326.728C558.705 326.728 558.517 326.696 558.339 326.632L548.135 322.884C547.311 322.579 546.888 321.665 547.19 320.838C547.493 320.017 548.412 319.601 549.233 319.896L559.434 323.641C560.261 323.947 560.681 324.86 560.379 325.687C560.143 326.33 559.535 326.728 558.886 326.728Z" fill="#FFFCF6"/>
<path d="M677.873 319.497C677.195 319.497 676.565 319.061 676.355 318.38C676.091 317.544 676.559 316.65 677.399 316.385L691.345 312.033C692.178 311.766 693.075 312.24 693.336 313.076C693.6 313.916 693.133 314.807 692.293 315.071L678.347 319.427C678.191 319.475 678.029 319.497 677.873 319.497Z" fill="#FFFCF6"/>
<path d="M610.759 246.943C610.759 246.943 610.787 278.674 629.69 284.404C648.589 290.138 697.21 287.608 696.716 279.854C692.265 209.847 659.356 213.369 631.873 204.409C583.673 188.701 544.251 267.401 550.153 286.002C556.055 304.599 596.737 287.233 605.445 284.617C614.15 281.999 609.327 260.436 610.759 246.943" fill="#000C3E"/>
<g opacity="0.210007">
<g opacity="0.210007">
<path opacity="0.210007" d="M562.015 354.112C562.015 354.112 604.895 329.371 623.715 332.83C642.535 336.291 675.564 336.832 677.06 343.584C678.558 350.332 635.185 347.291 621.844 348.589C608.503 349.887 557.287 365.245 562.015 354.112Z" fill="#DB5C5D"/>
</g>
</g>
<path d="M586.012 337.556C585.386 337.556 584.791 337.184 584.539 336.564C584.208 335.752 584.6 334.823 585.414 334.492C589.725 332.736 590.524 331.352 590.53 331.339C590.814 330.506 591.685 330.118 592.525 330.413C593.356 330.697 593.773 331.664 593.489 332.497C593.289 333.083 592.204 335.164 586.611 337.439C586.413 337.518 586.213 337.556 586.012 337.556Z" fill="#DB5C5D"/>
<path d="M651.524 334.188C650.241 334.188 648.078 333.8 644.68 332.143C643.887 331.761 643.56 330.809 643.945 330.017C644.326 329.228 645.284 328.904 646.07 329.285C650.26 331.325 651.819 330.984 651.839 330.984C652.65 330.644 653.515 331.042 653.859 331.85C654.203 332.658 653.764 333.613 652.952 333.959C652.742 334.048 652.29 334.188 651.524 334.188Z" fill="#DB5C5D"/>
<path d="M610.127 331.541C609.323 331.541 608.629 330.934 608.546 330.113C608.457 329.238 609.093 328.455 609.968 328.369L627.042 326.626C627.897 326.517 628.696 327.17 628.785 328.045C628.874 328.92 628.238 329.702 627.363 329.788L610.29 331.532C610.236 331.538 610.182 331.541 610.127 331.541Z" fill="#FFFCF6"/>
<path d="M586.487 191.566C586.255 191.566 586.016 191.515 585.793 191.404C576.767 187.016 571.307 180.758 569.557 172.8C565.675 155.132 581.46 135.584 582.134 134.759C582.694 134.079 583.693 133.98 584.371 134.537C585.052 135.094 585.154 136.093 584.597 136.774C584.441 136.964 569.112 155.969 572.666 172.126C574.196 179.081 579.08 184.604 587.184 188.547C587.973 188.928 588.304 189.883 587.919 190.672C587.645 191.235 587.079 191.566 586.487 191.566Z" fill="#000C3E"/>
<path d="M622.817 196.295C622.374 196.295 621.935 196.11 621.62 195.754C621.041 195.092 621.105 194.09 621.767 193.508C621.951 193.345 640.195 177.122 639.343 160.599C638.977 153.488 635.066 147.236 627.72 142.014C627.004 141.508 626.835 140.516 627.344 139.797C627.853 139.084 628.846 138.915 629.562 139.424C637.742 145.234 642.104 152.307 642.521 160.446C643.444 178.509 624.665 195.197 623.863 195.9C623.561 196.164 623.189 196.295 622.817 196.295Z" fill="#000C3E"/>
<path d="M717.447 405.181C716.986 405.181 716.528 404.984 716.213 404.593C715.659 403.915 715.761 402.913 716.442 402.356C716.652 402.184 737.578 384.707 731.517 357.058C729.181 346.399 725.086 334.671 720.75 322.256C713.231 300.725 705.455 278.459 704.822 256.874C704.797 255.993 705.49 255.265 706.368 255.236C707.192 255.265 707.978 255.901 708.004 256.779C708.624 277.874 716.314 299.904 723.753 321.206C728.122 333.717 732.249 345.53 734.625 356.374C741.113 385.98 718.678 404.641 718.449 404.825C718.153 405.064 717.8 405.181 717.447 405.181Z" fill="#000C3E"/>
<path d="M723.098 291.552C723.047 291.552 722.993 291.549 722.939 291.546C722.067 291.46 721.427 290.68 721.513 289.805C724.262 261.968 718.405 239.375 704.109 222.642C681.089 195.709 643.691 193.236 643.319 193.214C642.441 193.163 641.769 192.412 641.823 191.531C641.871 190.656 642.625 189.962 643.5 190.039C643.892 190.061 682.639 192.619 706.527 220.574C721.408 237.991 727.517 261.389 724.679 290.117C724.599 290.941 723.906 291.552 723.098 291.552Z" fill="#000C3E"/>
<path d="M609.154 378.321C609.154 378.321 625.008 367.198 639.167 376.734C639.167 376.734 622.635 382.928 609.154 378.321Z" fill="#DB5C5D"/>
<path d="M619.644 389.741C618.079 389.741 616.733 389.725 615.902 389.713C615.024 389.7 614.324 388.978 614.337 388.096C614.35 387.218 614.951 386.505 615.953 386.531C621.961 386.61 629.139 386.464 630.255 386.041C631.073 385.729 631.996 386.136 632.311 386.954C632.626 387.775 632.225 388.688 631.407 389.006C629.816 389.624 623.911 389.741 619.644 389.741Z" fill="#DB5C5D"/>
<path d="M542.48 346.204C542.337 346.204 542.193 346.185 542.05 346.144C541.204 345.908 540.711 345.033 540.946 344.184C545.299 328.584 533.743 318.539 533.625 318.437C532.957 317.871 532.874 316.865 533.444 316.194C534.01 315.526 535.015 315.443 535.687 316.016C536.228 316.474 548.907 327.499 544.01 345.043C543.813 345.743 543.177 346.204 542.48 346.204Z" fill="#DB5C5D"/>
<path d="M690.92 350.004C690.885 350.004 690.853 350.004 690.815 350.001C689.94 349.943 689.275 349.186 689.329 348.311C690.519 329.847 699.367 319.978 699.746 319.567C700.338 318.918 701.343 318.874 701.989 319.465C702.638 320.057 702.682 321.063 702.094 321.712C702.008 321.807 693.618 331.235 692.507 348.515C692.45 349.358 691.75 350.004 690.92 350.004Z" fill="#DB5C5D"/>
<path d="M658.972 401.942C658.972 401.942 664.031 458.535 657.318 467.485C650.604 476.439 608.083 469.722 596.893 467.485C585.703 465.249 585.681 371.648 587.94 377.97C606.623 430.186 657.683 383.978 658.972 401.942Z" fill="#FFCEB0"/>
<path d="M591.986 407.539C591.986 407.539 622.152 422.039 656.445 404.488C656.445 404.488 659.111 425.57 656.445 430.432C653.782 435.294 599.46 438.768 588.766 414.806C588.766 414.806 588.9 406.499 591.986 407.539" fill="#F5A473"/>
<path d="M427.249 850.877H817.622C817.622 850.877 837.562 511.475 788.662 474.567C739.758 437.656 524.486 456.094 473.804 487.622C423.122 519.149 427.249 850.877 427.249 850.877Z" fill="#FB4C47"/>
<path d="M622.153 460.778C622.153 460.778 607.106 591.242 613.673 609.4C620.237 627.558 611.828 708.066 609.155 718.531C606.479 728.995 525.374 733.44 504.444 725.069C483.515 716.698 509.777 491.046 521.492 449.299C533.21 407.548 620.864 432.146 622.153 460.778Z" fill="#05BA6E"/>
<path d="M383.969 300.933C383.969 300.933 416.598 363.425 439.465 364.005C462.335 364.584 539.454 270.668 567.889 269.701C596.327 268.737 620.747 271.496 620.858 264.718C620.97 257.938 581.306 250.537 581.306 250.537C581.306 250.537 638.667 254.19 626.802 247.916C614.94 241.641 586.515 236 586.515 236C586.515 236 627.741 237.664 628.04 233.254C628.339 228.844 585.118 222.351 585.118 222.351C585.118 222.351 637.712 220.671 628.094 213.435C618.472 206.2 600.365 209.34 551.388 216.821C502.409 224.301 391.602 289.689 383.969 300.933Z" fill="#FFCEB0"/>
<path d="M441.214 297.939C441.214 297.939 493.41 329.031 470.683 364.266C446.483 401.785 447.838 390.639 443.654 405.819C439.467 420.999 508.44 450.564 511.578 463.558C514.715 476.549 482.201 636.332 451.745 629.775C425.235 624.07 277.914 540.467 256.743 456.921C240.332 392.15 374.101 233.722 441.214 297.939Z" fill="#FB4C47"/>
<path d="M577.845 662.399C577.845 662.399 520.011 789.802 541.274 806.862C562.538 823.92 579.671 812.806 598.475 823.878C617.283 834.951 635.323 829.415 650.43 819.78C665.537 810.143 626.22 683.392 609.958 671.324C593.696 659.252 580.775 655.778 577.845 662.399Z" fill="white"/>
<path d="M770.001 465.501C770.001 465.501 801.099 469.297 825.51 514.001C843.823 547.541 879.304 743.53 825.51 771.455C771.716 799.378 721.26 784.772 701.736 765.954C682.208 747.136 716.95 650.155 740.108 642.916C763.268 635.68 770.001 465.501 770.001 465.501Z" fill="#FB4C47"/>
<path d="M780.07 462.497C780.07 462.497 781.524 453.435 736.741 434.055C701.004 418.589 670.393 444.692 615.88 447.501C561.367 450.314 566.286 428.707 527.727 438.748C468.222 454.24 515.598 493.245 534.771 497.623C553.945 502.001 618.181 609.986 780.07 462.497Z" fill="#05BA6E"/>
<path d="M623.779 353.601C623.779 353.601 623.614 357.292 625.733 357.626C627.852 357.96 631.769 356.776 630.76 351.803C630.76 351.803 625.446 353.512 623.779 353.601Z" fill="white"/>
<path d="M844.514 659.319C844.364 659.319 844.212 659.31 844.059 659.287C842.589 659.077 841.501 657.894 841.345 656.484C838.695 653.42 820.899 647.003 809.028 642.72C785.509 634.234 774.961 630.038 772.693 625.446C770.768 621.555 771.63 615.943 772.721 608.838C774.449 597.593 776.603 583.594 769.463 570.11C757.134 546.823 758.308 512.282 758.365 510.824C758.435 509.068 759.953 507.662 761.665 507.767C763.421 507.834 764.789 509.313 764.726 511.066C764.71 511.41 763.564 545.372 775.089 567.132C783.212 582.48 780.784 598.271 779.012 609.802C778.162 615.322 777.363 620.537 778.398 622.627C780.326 625.602 798.897 632.303 811.185 636.735C838.879 646.726 848.494 650.744 847.658 656.589C847.432 658.177 846.07 659.319 844.514 659.319Z" fill="#B31B1F"/>
<path d="M761.5 633.159C761.223 633.159 760.943 633.124 760.66 633.048C750.147 630.181 733.815 627.197 733.653 627.165C731.922 626.853 730.777 625.195 731.092 623.468C731.407 621.737 733.058 620.572 734.792 620.906C735.47 621.027 751.554 623.967 762.333 626.907C764.029 627.372 765.028 629.119 764.567 630.814C764.182 632.23 762.9 633.159 761.5 633.159Z" fill="#B31B1F"/>
<path d="M818.653 790.54C818.602 790.54 818.554 790.54 818.507 790.537C759.613 787.868 700.935 762.78 697.763 738.917C696.767 731.417 696.048 727.666 695.603 725.811C694.413 725.219 693.69 723.953 693.904 722.569C694.308 719.947 696.083 719.018 697.493 719.018H697.528C700.732 719.053 701.794 720.93 704.072 738.08C706.535 756.604 759.956 781.514 818.793 784.18C820.549 784.26 821.908 785.746 821.828 787.502C821.752 789.21 820.343 790.54 818.653 790.54Z" fill="#B31B1F"/>
<path d="M713.077 734.227C712.844 734.227 712.609 734.201 712.37 734.15C710.659 733.762 709.583 732.057 709.971 730.342C710.108 729.728 724.025 668.384 737.032 624.256C737.528 622.57 739.31 621.603 740.984 622.105C742.67 622.602 743.634 624.371 743.135 626.057C730.185 669.987 716.316 731.134 716.179 731.748C715.842 733.224 714.531 734.227 713.077 734.227Z" fill="#B31B1F"/>
<path d="M437 600.995C436.844 600.995 436.682 600.982 436.523 600.96C434.786 600.699 433.589 599.077 433.85 597.343C434.178 595.147 442.034 543.301 452.813 519.04C463.294 495.463 468.658 471.559 468.712 471.32C469.088 469.605 470.784 468.533 472.508 468.902C474.223 469.284 475.305 470.986 474.923 472.701C474.704 473.7 469.365 497.468 458.63 521.627C448.2 545.098 440.22 597.756 440.14 598.284C439.905 599.866 438.546 600.995 437 600.995Z" fill="#B31B1F"/>
<path d="M388.497 419.978C380.027 419.978 370.536 419.462 360.087 418.132C358.344 417.91 357.109 416.319 357.332 414.575C357.551 412.832 359.184 411.619 360.889 411.82C392.706 415.873 415.309 412.141 426.961 409.599C421.157 407.744 413.028 405.937 404.915 406.379C386.658 407.238 359.944 390.929 358.815 390.229C357.319 389.306 356.858 387.346 357.781 385.851C358.703 384.355 360.666 383.887 362.159 384.817C362.419 384.976 388.351 400.817 404.587 400.022C420.053 399.207 438.371 406.096 440.035 409.052C440.63 410.105 440.582 411.473 439.904 412.475C439.274 413.401 437.97 413.958 436.824 413.888C436.322 413.945 434.833 414.302 433.385 414.645C426.426 416.312 411.09 419.975 388.497 419.978Z" fill="#B31B1F"/>
<path d="M466.708 351.595C465.524 351.595 464.388 350.933 463.841 349.8C463.762 349.638 455.817 333.5 442.288 327.105C426.93 319.841 409.561 294.524 408.829 293.452C407.84 291.998 408.215 290.015 409.666 289.029C411.123 288.043 413.099 288.421 414.085 289.866C414.257 290.114 431.213 314.823 445.012 321.349C460.602 328.727 469.212 346.287 469.572 347.029C470.335 348.613 469.67 350.51 468.089 351.273C467.643 351.493 467.172 351.595 466.708 351.595Z" fill="#B31B1F"/>
<path d="M614.497 536.502C614.379 536.502 614.258 536.489 614.14 536.46C613.285 536.266 612.747 535.41 612.944 534.558C613.02 534.22 620.609 501.048 622.83 484.197C626.288 457.926 614.522 448.762 614.405 448.673C613.701 448.145 613.555 447.152 614.077 446.449C614.599 445.743 615.585 445.593 616.291 446.112C616.842 446.516 629.709 456.319 625.983 484.611C623.746 501.614 616.123 534.933 616.046 535.264C615.878 536.005 615.222 536.502 614.497 536.502Z" fill="#08824F"/>
<path d="M520.662 488.658L517.503 488.292C517.503 488.292 519.972 466.812 521.261 456.252C522.562 445.599 525.6 438.326 525.731 438.02C526.071 437.206 527.007 436.837 527.815 437.171C528.623 437.514 529.002 438.45 528.661 439.258C528.629 439.328 525.661 446.455 524.42 456.64C523.131 467.191 520.662 488.655 520.662 488.658Z" fill="#08824F"/>
<path d="M611.008 841.386C592.862 841.386 582.884 840.788 569.076 839.961C551.312 838.895 526.988 837.438 470.143 836.553C468.387 836.528 466.983 835.083 467.012 833.324C467.041 831.568 468.587 830.104 470.241 830.19C527.226 831.074 551.633 832.541 569.454 833.61C583.155 834.428 593.05 835.023 611.008 835.023C633.487 835.023 653.653 832.56 673.157 830.18C690.277 828.087 706.447 826.114 723.778 825.729C760.746 824.915 788.373 825.726 788.647 825.729C790.403 825.786 791.784 827.253 791.73 829.006C791.676 830.763 790.193 832.064 788.456 832.093C788.183 832.083 760.711 831.268 723.921 832.093C706.905 832.468 690.885 834.425 673.927 836.496C654.235 838.901 633.875 841.386 611.008 841.386Z" fill="#B31B1F"/>
<path d="M755.143 798.933C753.562 798.933 751.977 798.224 750.596 796.136C746.298 789.642 745 789.108 736.689 790.387C729.17 791.561 726.202 786.232 724.236 782.709C723.58 781.532 722.957 780.422 722.412 779.992C720.949 778.837 717.293 780.224 715.747 781.077L714.204 778.296C714.878 777.921 720.873 774.723 724.385 777.495C725.426 778.319 726.161 779.636 727.013 781.157C728.913 784.552 730.879 788.048 736.202 787.243C745.716 785.773 748.258 786.846 753.25 794.38C754.573 796.385 755.719 796.111 759.247 794.052C761.926 792.481 765.99 790.11 769.019 794.342L766.435 796.194C765.255 794.555 764.185 794.851 760.851 796.798C759.257 797.73 757.202 798.933 755.143 798.933Z" fill="white"/>
<path d="M718.124 649.085C718.124 649.085 642.125 621.605 609.153 635.662C576.18 649.715 549.008 685.949 554.042 688.345C559.075 690.744 586.012 669.852 586.012 669.852C586.012 669.852 558.544 697.61 563.638 700.388C568.732 703.165 595.201 688.345 595.201 688.345C595.201 688.345 576.724 708.097 584.66 709.608C592.595 711.12 609.608 694.845 627.349 694.234C645.094 693.62 667.455 707.642 689.638 711.59C711.818 715.536 718.124 649.085 718.124 649.085Z" fill="#FFCEB0"/>
<path d="M832.818 634.841C832.621 634.841 832.423 634.821 832.223 634.783C832 634.745 809.62 630.513 782.865 625.073C781.143 624.723 780.03 623.043 780.38 621.321C780.727 619.6 782.403 618.486 784.131 618.84C810.842 624.268 833.184 628.49 833.407 628.534C835.134 628.859 836.267 630.523 835.939 632.251C835.653 633.778 834.316 634.841 832.818 634.841Z" fill="#B31B1F"/>
<path fill-rule="evenodd" clip-rule="evenodd" d="M620.41 134.77C619.578 134.77 618.676 134.867 617.697 135.06C615.312 135.539 613.766 136.698 612.838 138.709C608.702 147.662 617.424 168.987 623.656 181.586C627.507 167.61 632.122 144.248 625.6 136.887C624.345 135.471 622.636 134.77 620.41 134.77ZM623.839 192.049C623.939 192.068 624.04 192.082 624.142 192.091C624.474 192.219 624.828 192.284 625.185 192.284C625.517 192.284 625.849 192.23 626.172 192.112C630.422 190.563 667.843 176.528 672.505 160.356C673.626 156.467 672.836 152.633 670.224 149.274C665.781 143.554 660.981 142.874 657.735 143.306C648.524 144.535 639.457 156.435 632.808 167.74C635.16 154.863 636.065 139.993 629.922 133.057C627.755 130.608 623.673 127.984 616.567 129.399C612.397 130.231 609.294 132.616 607.597 136.29C601.32 149.887 615.761 179.17 620.575 188.244C614.505 189.416 608.402 189.68 602.563 189.283C589.983 188.429 578.834 184.517 572.177 180.237L569.797 183.938C577.164 188.674 589.052 192.775 602.265 193.673C609.194 194.144 616.543 193.737 623.839 192.049ZM659.327 148.971C659.054 148.971 658.777 148.988 658.5 149.03C648.744 150.328 636.956 171.018 630.724 184.108C643.68 178.653 664.228 168.234 666.957 158.76C667.57 156.627 667.159 154.741 665.668 152.818C663.661 150.235 661.582 148.971 659.327 148.971Z" fill="#FFD310"/>
<path d="M197.269 243.75H310.514C317.784 243.75 324.662 247.045 329.218 252.711L362.458 294.048C367.172 299.911 374.363 303.224 381.882 302.998L594.85 296.597" stroke="#FFB2B1" stroke-width="5" stroke-linejoin="round"/>
<path d="M209.361 244.266C209.361 249.302 205.278 253.384 200.242 253.384C195.206 253.384 191.124 249.302 191.124 244.266C191.124 239.23 195.206 235.148 200.242 235.148C205.278 235.148 209.361 239.23 209.361 244.266Z" fill="#FF383D"/>
<path d="M11.0005 244.367C11.0005 205.357 42.6248 173.733 81.6346 173.733C120.644 173.733 152.266 205.357 152.266 244.367C152.266 283.377 120.644 315.001 81.6346 315.001C42.6248 315.001 11.0005 283.377 11.0005 244.367Z" fill="#FFE1E2"/>
<path d="M81.3301 156.491C130.102 156.491 169.64 196.029 169.64 244.801C169.64 293.573 130.102 333.114 81.3301 333.114V376.725" stroke="#FFD6D7" stroke-width="2.4" stroke-miterlimit="10"/>
<path d="M74.0676 378.928C74.0676 374.917 77.3182 371.666 81.3299 371.666C85.3415 371.666 88.5921 374.917 88.5921 378.928C88.5921 382.94 85.3415 386.19 81.3299 386.19C77.3182 386.19 74.0676 382.94 74.0676 378.928Z" fill="#F2AEB0"/>
<path d="M59.4419 247.094H52.8784V254.001H50.8159V238.36H60.5054V240.057H52.8784V245.407H59.4419V247.094ZM71.8169 246.771H65.0386V252.314H72.9126V254.001H62.9761V238.36H72.8052V240.057H65.0386V245.085H71.8169V246.771ZM75.48 254.001V238.36H80.5933C82.2905 238.36 83.5653 238.711 84.4175 239.413C85.2769 240.115 85.7065 241.153 85.7065 242.528C85.7065 243.259 85.4989 243.907 85.0835 244.472C84.6681 245.031 84.1024 245.464 83.3862 245.772C84.2313 246.009 84.8973 246.46 85.3843 247.126C85.8784 247.785 86.1255 248.572 86.1255 249.489C86.1255 250.893 85.6707 251.996 84.7612 252.798C83.8517 253.6 82.5662 254.001 80.9048 254.001H75.48ZM77.5425 246.685V252.314H80.9478C81.9074 252.314 82.6629 252.067 83.2144 251.573C83.7729 251.072 84.0522 250.384 84.0522 249.511C84.0522 247.627 83.0282 246.685 80.98 246.685H77.5425ZM77.5425 245.031H80.6577C81.5601 245.031 82.2798 244.805 82.8169 244.354C83.3612 243.903 83.6333 243.291 83.6333 242.517C83.6333 241.658 83.3826 241.035 82.8813 240.648C82.38 240.254 81.6174 240.057 80.5933 240.057H77.5425V245.031ZM94.9233 247.674H91.2495V254.001H89.1763V238.36H94.354C96.1157 238.36 97.4692 238.761 98.4146 239.563C99.367 240.365 99.8433 241.533 99.8433 243.065C99.8433 244.039 99.5783 244.888 99.0483 245.611C98.5256 246.334 97.7951 246.875 96.8569 247.233L100.531 253.872V254.001H98.3179L94.9233 247.674ZM91.2495 245.987H94.4185C95.4425 245.987 96.2554 245.722 96.8569 245.192C97.4657 244.662 97.77 243.953 97.77 243.065C97.77 242.098 97.48 241.357 96.8999 240.842C96.327 240.326 95.4963 240.065 94.4077 240.057H91.2495V245.987ZM111.584 246.771H104.806V252.314H112.68V254.001H102.744V238.36H112.573V240.057H104.806V245.085H111.584V246.771Z" fill="#FF383D"/>
<path d="M650.77 358.046H819.584C828.398 358.046 836.503 362.878 840.695 370.631L871.944 428.42C876.136 436.173 884.241 441.004 893.055 441.004H975.84" stroke="#FFB2B1" stroke-width="5" stroke-linejoin="round"/>
<path d="M979.944 440.905C979.944 445.941 975.862 450.024 970.826 450.024C965.79 450.024 961.708 445.941 961.708 440.905C961.708 435.869 965.79 431.787 970.826 431.787C975.862 431.787 979.944 435.869 979.944 440.905Z" fill="#FF383D"/>
<path opacity="0.15" d="M1005.73 459.367C1005.73 420.357 1037.36 388.733 1076.37 388.733C1115.38 388.733 1147 420.357 1147 459.367C1147 498.377 1115.38 530.001 1076.37 530.001C1037.36 530.001 1005.73 498.377 1005.73 459.367Z" fill="#FF383D"/>
<path d="M1061.96 445H1060.08L1052.92 434.043V445H1051.04V430.781H1052.92L1060.1 441.787V430.781H1061.96V445ZM1073.32 441.289H1067.37L1066.03 445H1064.09L1069.52 430.781H1071.16L1076.6 445H1074.68L1073.32 441.289ZM1067.93 439.746H1072.77L1070.34 433.096L1067.93 439.746ZM1083.73 439.248H1080.39V445H1078.51V430.781H1083.21C1084.82 430.781 1086.05 431.146 1086.91 431.875C1087.77 432.604 1088.21 433.665 1088.21 435.059C1088.21 435.944 1087.96 436.715 1087.48 437.373C1087.01 438.031 1086.34 438.522 1085.49 438.848L1088.83 444.883V445H1086.82L1083.73 439.248ZM1080.39 437.715H1083.27C1084.2 437.715 1084.94 437.474 1085.49 436.992C1086.04 436.51 1086.32 435.866 1086.32 435.059C1086.32 434.18 1086.06 433.506 1085.53 433.037C1085.01 432.568 1084.25 432.331 1083.26 432.324H1080.39V437.715ZM1092.85 445H1090.98V430.781H1092.85V445ZM1097.7 443.467H1105.83V445H1095.48V443.594L1103.27 432.324H1095.61V430.781H1105.52V432.158L1097.7 443.467ZM1024.1 465.428H1017.94V470.467H1025.1V472H1016.07V457.781H1025V459.324H1017.94V463.895H1024.1V465.428ZM1031.62 465.662C1030.01 465.2 1028.84 464.633 1028.11 463.963C1027.38 463.286 1027.01 462.452 1027.01 461.463C1027.01 460.343 1027.46 459.419 1028.35 458.689C1029.25 457.954 1030.42 457.586 1031.85 457.586C1032.82 457.586 1033.69 457.775 1034.46 458.152C1035.22 458.53 1035.82 459.051 1036.23 459.715C1036.66 460.379 1036.87 461.105 1036.87 461.893H1034.98C1034.98 461.033 1034.71 460.359 1034.16 459.871C1033.62 459.376 1032.84 459.129 1031.85 459.129C1030.92 459.129 1030.2 459.334 1029.68 459.744C1029.17 460.148 1028.91 460.711 1028.91 461.434C1028.91 462.013 1029.15 462.505 1029.64 462.908C1030.14 463.305 1030.97 463.67 1032.15 464.002C1033.34 464.334 1034.26 464.702 1034.92 465.105C1035.59 465.503 1036.09 465.968 1036.41 466.502C1036.73 467.036 1036.9 467.664 1036.9 468.387C1036.9 469.539 1036.45 470.464 1035.55 471.16C1034.65 471.85 1033.45 472.195 1031.95 472.195C1030.97 472.195 1030.06 472.01 1029.21 471.639C1028.36 471.261 1027.71 470.747 1027.25 470.096C1026.79 469.445 1026.56 468.706 1026.56 467.879H1028.45C1028.45 468.738 1028.76 469.419 1029.4 469.92C1030.03 470.415 1030.88 470.662 1031.95 470.662C1032.93 470.662 1033.69 470.46 1034.22 470.057C1034.75 469.653 1035.01 469.103 1035.01 468.406C1035.01 467.71 1034.77 467.173 1034.28 466.795C1033.79 466.411 1032.91 466.033 1031.62 465.662ZM1049.77 467.488C1049.59 468.992 1049.04 470.154 1048.1 470.975C1047.17 471.788 1045.93 472.195 1044.38 472.195C1042.7 472.195 1041.35 471.593 1040.33 470.389C1039.32 469.184 1038.82 467.573 1038.82 465.555V464.187C1038.82 462.866 1039.05 461.704 1039.52 460.701C1040 459.699 1040.67 458.93 1041.54 458.396C1042.4 457.856 1043.4 457.586 1044.54 457.586C1046.05 457.586 1047.26 458.009 1048.18 458.855C1049.09 459.695 1049.62 460.861 1049.77 462.352H1047.88C1047.72 461.219 1047.37 460.398 1046.82 459.891C1046.28 459.383 1045.52 459.129 1044.54 459.129C1043.35 459.129 1042.4 459.572 1041.72 460.457C1041.04 461.342 1040.71 462.602 1040.71 464.236V465.613C1040.71 467.156 1041.03 468.383 1041.67 469.295C1042.32 470.206 1043.22 470.662 1044.38 470.662C1045.42 470.662 1046.22 470.428 1046.77 469.959C1047.33 469.484 1047.7 468.66 1047.88 467.488H1049.77ZM1063.27 465.35C1063.27 466.743 1063.04 467.96 1062.57 469.002C1062.1 470.037 1061.44 470.828 1060.58 471.375C1059.72 471.922 1058.72 472.195 1057.57 472.195C1056.45 472.195 1055.46 471.922 1054.59 471.375C1053.73 470.822 1053.05 470.037 1052.57 469.021C1052.1 467.999 1051.85 466.818 1051.84 465.477V464.451C1051.84 463.084 1052.08 461.876 1052.55 460.828C1053.03 459.78 1053.7 458.979 1054.56 458.426C1055.43 457.866 1056.43 457.586 1057.55 457.586C1058.69 457.586 1059.69 457.863 1060.56 458.416C1061.43 458.963 1062.1 459.76 1062.57 460.809C1063.04 461.85 1063.27 463.064 1063.27 464.451V465.35ZM1061.41 464.432C1061.41 462.745 1061.07 461.453 1060.39 460.555C1059.72 459.65 1058.77 459.197 1057.55 459.197C1056.37 459.197 1055.43 459.65 1054.75 460.555C1054.07 461.453 1053.72 462.703 1053.7 464.305V465.35C1053.7 466.984 1054.04 468.27 1054.73 469.207C1055.42 470.138 1056.37 470.604 1057.57 470.604C1058.78 470.604 1059.72 470.164 1060.38 469.285C1061.05 468.4 1061.39 467.133 1061.41 465.486V464.432ZM1071.3 466.248H1067.96V472H1066.08V457.781H1070.78C1072.38 457.781 1073.62 458.146 1074.47 458.875C1075.34 459.604 1075.77 460.665 1075.77 462.059C1075.77 462.944 1075.53 463.715 1075.05 464.373C1074.58 465.031 1073.91 465.522 1073.06 465.848L1076.4 471.883V472H1074.39L1071.3 466.248ZM1067.96 464.715H1070.84C1071.77 464.715 1072.51 464.474 1073.06 463.992C1073.61 463.51 1073.89 462.866 1073.89 462.059C1073.89 461.18 1073.62 460.506 1073.1 460.037C1072.58 459.568 1071.82 459.331 1070.83 459.324H1067.96V464.715ZM1083.62 466.248H1080.29V472H1078.4V457.781H1083.11C1084.71 457.781 1085.94 458.146 1086.8 458.875C1087.66 459.604 1088.1 460.665 1088.1 462.059C1088.1 462.944 1087.86 463.715 1087.38 464.373C1086.9 465.031 1086.24 465.522 1085.38 465.848L1088.72 471.883V472H1086.71L1083.62 466.248ZM1080.29 464.715H1083.17C1084.1 464.715 1084.84 464.474 1085.38 463.992C1085.94 463.51 1086.21 462.866 1086.21 462.059C1086.21 461.18 1085.95 460.506 1085.42 460.037C1084.9 459.568 1084.15 459.331 1083.16 459.324H1080.29V464.715ZM1098.77 465.428H1092.61V470.467H1099.77V472H1090.73V457.781H1099.67V459.324H1092.61V463.895H1098.77V465.428ZM1113.03 472H1111.14L1103.99 461.043V472H1102.1V457.781H1103.99L1111.16 468.787V457.781H1113.03V472ZM1116.36 472V457.781H1120.37C1121.61 457.781 1122.7 458.055 1123.65 458.602C1124.6 459.148 1125.34 459.926 1125.85 460.936C1126.37 461.945 1126.64 463.104 1126.64 464.412V465.32C1126.64 466.661 1126.38 467.837 1125.86 468.846C1125.35 469.855 1124.61 470.63 1123.64 471.17C1122.69 471.71 1121.57 471.987 1120.29 472H1116.36ZM1118.23 459.324V470.467H1120.21C1121.65 470.467 1122.78 470.018 1123.58 469.119C1124.38 468.221 1124.79 466.941 1124.79 465.281V464.451C1124.79 462.837 1124.41 461.583 1123.64 460.691C1122.89 459.793 1121.82 459.337 1120.42 459.324H1118.23ZM1140.42 465.35C1140.42 466.743 1140.19 467.96 1139.72 469.002C1139.25 470.037 1138.59 470.828 1137.73 471.375C1136.87 471.922 1135.86 472.195 1134.72 472.195C1133.6 472.195 1132.61 471.922 1131.74 471.375C1130.87 470.822 1130.2 470.037 1129.72 469.021C1129.24 467.999 1129 466.818 1128.99 465.477V464.451C1128.99 463.084 1129.22 461.876 1129.7 460.828C1130.17 459.78 1130.85 458.979 1131.71 458.426C1132.58 457.866 1133.58 457.586 1134.7 457.586C1135.84 457.586 1136.84 457.863 1137.71 458.416C1138.58 458.963 1139.25 459.76 1139.72 460.809C1140.19 461.85 1140.42 463.064 1140.42 464.451V465.35ZM1138.56 464.432C1138.56 462.745 1138.22 461.453 1137.54 460.555C1136.86 459.65 1135.92 459.197 1134.7 459.197C1133.51 459.197 1132.58 459.65 1131.9 460.555C1131.22 461.453 1130.87 462.703 1130.85 464.305V465.35C1130.85 466.984 1131.19 468.27 1131.88 469.207C1132.57 470.138 1133.51 470.604 1134.72 470.604C1135.93 470.604 1136.87 470.164 1137.53 469.285C1138.2 468.4 1138.54 467.133 1138.56 465.486V464.432Z" fill="#FF383D"/>
<path d="M1081.03 371.266C1129.8 371.266 1169.34 410.804 1169.34 459.579C1169.34 508.351 1129.8 547.889 1081.03 547.889V591.502" stroke="#FFD6D7" stroke-width="2.4" stroke-miterlimit="10"/>
<path d="M1073.77 593.705C1073.77 589.693 1077.02 586.443 1081.03 586.443C1085.04 586.443 1088.29 589.693 1088.29 593.705C1088.29 597.717 1085.04 600.967 1081.03 600.967C1077.02 600.967 1073.77 597.717 1073.77 593.705Z" fill="#F2AEB0"/>
<path opacity="0.15" d="M11.0005 730.367C11.0005 691.357 42.6248 659.733 81.6346 659.733C120.644 659.733 152.266 691.357 152.266 730.367C152.266 769.377 120.644 801.001 81.6346 801.001C42.6248 801.001 11.0005 769.377 11.0005 730.367Z" fill="#FF383D"/>
<g filter="url(#filter0_d)">
<path d="M45.1538 727.093H38.5903V734H36.5278V718.359H46.2173V720.057H38.5903V725.406H45.1538V727.093ZM55.4985 729.918H48.9458L47.4741 734H45.3472L51.3198 718.359H53.1245L59.1079 734H56.9917L55.4985 729.918ZM49.5688 728.221H54.8862L52.2222 720.905L49.5688 728.221ZM63.2866 732.313H70.6987V734H61.2134V718.359H63.2866V732.313ZM80.8931 720.057H75.8657V734H73.814V720.057H68.7974V718.359H80.8931V720.057ZM90.9907 729.918H84.438L82.9663 734H80.8394L86.812 718.359H88.6167L94.6001 734H92.4839L90.9907 729.918ZM85.061 728.221H90.3784L87.7144 720.905L85.061 728.221ZM102.163 734V718.359H106.578C107.938 718.359 109.141 718.66 110.187 719.262C111.233 719.863 112.038 720.719 112.604 721.829C113.177 722.939 113.467 724.214 113.474 725.653V726.652C113.474 728.128 113.188 729.42 112.615 730.53C112.049 731.64 111.236 732.493 110.176 733.087C109.124 733.681 107.895 733.986 106.492 734H102.163ZM104.225 720.057V732.313H106.395C107.985 732.313 109.22 731.819 110.101 730.831C110.989 729.843 111.433 728.436 111.433 726.609V725.696C111.433 723.92 111.014 722.542 110.176 721.561C109.346 720.572 108.164 720.071 106.631 720.057H104.225ZM125.441 726.771H118.663V732.313H126.537V734H116.6V718.359H126.429V720.057H118.663V725.084H125.441V726.771ZM77.4985 755.918H70.9458L69.4741 760H67.3472L73.3198 744.359H75.1245L81.1079 760H78.9917L77.4985 755.918ZM71.5688 754.221H76.8862L74.2222 746.905L71.5688 754.221ZM88.9497 753.673H85.2759V760H83.2026V744.359H88.3804C90.1421 744.359 91.4956 744.76 92.4409 745.562C93.3934 746.365 93.8696 747.532 93.8696 749.064C93.8696 750.038 93.6047 750.887 93.0747 751.61C92.5519 752.334 91.8215 752.874 90.8833 753.232L94.5571 759.871V760H92.3442L88.9497 753.673ZM85.2759 751.986H88.4448C89.4689 751.986 90.2817 751.721 90.8833 751.191C91.492 750.661 91.7964 749.952 91.7964 749.064C91.7964 748.098 91.5063 747.356 90.9263 746.841C90.3534 746.325 89.5226 746.064 88.4341 746.057H85.2759V751.986Z" fill="#FF383D"/>
</g>
<path d="M81.3323 642.643C130.105 642.643 169.642 682.181 169.642 730.953C169.642 779.728 130.105 819.266 81.3323 819.266V862.877" stroke="#FFD6D7" stroke-width="2.4" stroke-miterlimit="10"/>
<path d="M74.0698 865.081C74.0698 861.069 77.3204 857.819 81.3321 857.819C85.3437 857.819 88.5943 861.069 88.5943 865.081C88.5943 869.09 85.3437 872.343 81.3321 872.343C77.3204 872.343 74.0698 869.09 74.0698 865.081Z" fill="#F2AEB0"/>
<path d="M186.74 742.835H365.033C374.666 742.835 383.365 737.075 387.127 728.208L443.54 595.234C447.302 586.366 456.002 580.607 465.634 580.607H672.808" stroke="#FFB2B1" stroke-width="5" stroke-linejoin="round"/>
<path d="M201.987 743.241C201.987 748.277 197.904 752.36 192.868 752.36C187.832 752.36 183.75 748.277 183.75 743.241C183.75 738.205 187.832 734.123 192.868 734.123C197.904 734.123 201.987 738.205 201.987 743.241Z" fill="#FF383D"/>
<path opacity="0.15" d="M159.268 488.367C159.268 449.357 127.643 417.733 88.6336 417.733C49.6238 417.733 17.9995 449.357 17.9995 488.367C17.9995 527.377 49.6238 559.001 88.6336 559.001C127.643 559.001 159.268 527.377 159.268 488.367Z" fill="#FF383D"/>
<path d="M51.9131 478V462.359H56.3281C57.6888 462.359 58.8919 462.66 59.9375 463.262C60.9831 463.863 61.7887 464.719 62.3545 465.829C62.9274 466.939 63.2174 468.214 63.2246 469.653V470.652C63.2246 472.128 62.9382 473.42 62.3652 474.53C61.7995 475.64 60.9867 476.493 59.9268 477.087C58.874 477.681 57.6458 477.986 56.2422 478H51.9131ZM53.9756 464.057V476.313H56.1455C57.7354 476.313 58.9707 475.819 59.8516 474.831C60.7396 473.843 61.1836 472.436 61.1836 470.609V469.696C61.1836 467.92 60.7646 466.542 59.9268 465.561C59.096 464.572 57.9144 464.071 56.3818 464.057H53.9756ZM78.3818 470.685C78.3818 472.217 78.124 473.556 77.6084 474.702C77.0928 475.841 76.3623 476.711 75.417 477.312C74.4717 477.914 73.3688 478.215 72.1084 478.215C70.8766 478.215 69.7845 477.914 68.832 477.312C67.8796 476.704 67.1383 475.841 66.6084 474.724C66.0856 473.599 65.8171 472.299 65.8027 470.824V469.696C65.8027 468.192 66.0641 466.864 66.5869 465.711C67.1097 464.558 67.8473 463.677 68.7998 463.068C69.7594 462.452 70.8551 462.145 72.0869 462.145C73.3402 462.145 74.443 462.449 75.3955 463.058C76.3551 463.659 77.0928 464.536 77.6084 465.689C78.124 466.835 78.3818 468.171 78.3818 469.696V470.685ZM76.3301 469.675C76.3301 467.82 75.9577 466.398 75.2129 465.41C74.4681 464.415 73.4261 463.917 72.0869 463.917C70.7835 463.917 69.7559 464.415 69.0039 465.41C68.2591 466.398 67.876 467.773 67.8545 469.535V470.685C67.8545 472.482 68.2305 473.896 68.9824 474.928C69.7415 475.952 70.7835 476.464 72.1084 476.464C73.4404 476.464 74.4717 475.98 75.2021 475.014C75.9326 474.04 76.3086 472.647 76.3301 470.835V469.675ZM87.2119 471.673H83.5381V478H81.4648V462.359H86.6426C88.4043 462.359 89.7578 462.76 90.7031 463.562C91.6556 464.365 92.1318 465.532 92.1318 467.064C92.1318 468.038 91.8669 468.887 91.3369 469.61C90.8141 470.334 90.0837 470.874 89.1455 471.232L92.8193 477.871V478H90.6064L87.2119 471.673ZM83.5381 469.986H86.707C87.7311 469.986 88.5439 469.721 89.1455 469.191C89.7542 468.661 90.0586 467.952 90.0586 467.064C90.0586 466.098 89.7686 465.356 89.1885 464.841C88.6156 464.325 87.7848 464.064 86.6963 464.057H83.5381V469.986ZM112.51 478H110.437L102.562 465.947V478H100.489V462.359H102.562L110.458 474.466V462.359H112.51V478ZM125.003 473.918H118.45L116.979 478H114.852L120.824 462.359H122.629L128.612 478H126.496L125.003 473.918ZM119.073 472.221H124.391L121.727 464.905L119.073 472.221ZM45.7471 503.948C45.2171 504.707 44.4759 505.277 43.5234 505.656C42.5781 506.029 41.4753 506.215 40.2148 506.215C38.9401 506.215 37.8086 505.918 36.8203 505.323C35.832 504.722 35.0658 503.869 34.5215 502.767C33.9844 501.664 33.7087 500.385 33.6943 498.932V497.567C33.6943 495.211 34.2422 493.385 35.3379 492.089C36.4408 490.793 37.9876 490.145 39.9785 490.145C41.6113 490.145 42.9255 490.563 43.9209 491.401C44.9163 492.232 45.5251 493.414 45.7471 494.946H43.6846C43.2979 492.877 42.0661 491.842 39.9893 491.842C38.6071 491.842 37.5579 492.329 36.8418 493.303C36.1328 494.27 35.7747 495.673 35.7676 497.514V498.792C35.7676 500.547 36.1686 501.943 36.9707 502.981C37.7728 504.013 38.8577 504.528 40.2256 504.528C40.999 504.528 41.6758 504.442 42.2559 504.271C42.8359 504.099 43.3158 503.809 43.6953 503.4V499.888H40.0752V498.212H45.7471V503.948ZM57.832 501.918H51.2793L49.8076 506H47.6807L53.6533 490.359H55.458L61.4414 506H59.3252L57.832 501.918ZM51.9023 500.221H57.2197L54.5557 492.905L51.9023 500.221ZM69.2832 499.673H65.6094V506H63.5361V490.359H68.7139C70.4756 490.359 71.8291 490.76 72.7744 491.562C73.7269 492.365 74.2031 493.532 74.2031 495.064C74.2031 496.038 73.9382 496.887 73.4082 497.61C72.8854 498.334 72.1549 498.874 71.2168 499.232L74.8906 505.871V506H72.6777L69.2832 499.673ZM65.6094 497.986H68.7783C69.8024 497.986 70.6152 497.721 71.2168 497.191C71.8255 496.661 72.1299 495.952 72.1299 495.064C72.1299 494.098 71.8398 493.356 71.2598 492.841C70.6868 492.325 69.8561 492.064 68.7676 492.057H65.6094V497.986ZM88.6514 503.948C88.1214 504.707 87.3802 505.277 86.4277 505.656C85.4824 506.029 84.3796 506.215 83.1191 506.215C81.8444 506.215 80.7129 505.918 79.7246 505.323C78.7363 504.722 77.9701 503.869 77.4258 502.767C76.8887 501.664 76.613 500.385 76.5986 498.932V497.567C76.5986 495.211 77.1465 493.385 78.2422 492.089C79.3451 490.793 80.8919 490.145 82.8828 490.145C84.5156 490.145 85.8298 490.563 86.8252 491.401C87.8206 492.232 88.4294 493.414 88.6514 494.946H86.5889C86.2021 492.877 84.9704 491.842 82.8936 491.842C81.5114 491.842 80.4622 492.329 79.7461 493.303C79.0371 494.27 78.679 495.673 78.6719 497.514V498.792C78.6719 500.547 79.0729 501.943 79.875 502.981C80.6771 504.013 81.762 504.528 83.1299 504.528C83.9033 504.528 84.5801 504.442 85.1602 504.271C85.7402 504.099 86.2201 503.809 86.5996 503.4V499.888H82.9795V498.212H88.6514V503.948ZM100.736 501.918H94.1836L92.7119 506H90.585L96.5576 490.359H98.3623L104.346 506H102.229L100.736 501.918ZM94.8066 500.221H100.124L97.46 492.905L94.8066 500.221ZM118.472 506H116.398L108.524 493.947V506H106.451V490.359H108.524L116.42 502.466V490.359H118.472V506ZM132.619 492.057H127.592V506H125.54V492.057H120.523V490.359H132.619V492.057ZM142.717 501.918H136.164L134.692 506H132.565L138.538 490.359H140.343L146.326 506H144.21L142.717 501.918ZM136.787 500.221H142.104L139.44 492.905L136.787 500.221Z" fill="#FF383D"/>
<path d="M89.9725 400.026C41.2002 400.026 1.66248 439.564 1.66248 488.339C1.66248 537.111 41.2002 576.649 89.9725 576.649V620.263" stroke="#FFD6D7" stroke-width="2.4" stroke-miterlimit="10"/>
<path d="M97.4327 622.546C97.4327 618.534 94.1821 615.283 90.1705 615.283C86.1615 615.283 82.9082 618.534 82.9082 622.546C82.9082 626.557 86.1615 629.808 90.1705 629.808C94.1821 629.808 97.4327 626.557 97.4327 622.546Z" fill="#F2AEB0"/>
<path d="M190.511 503.071H393.822C401.243 503.071 408.246 499.638 412.792 493.773L455.528 438.63C460.074 432.764 467.077 429.331 474.498 429.331H631.721" stroke="#FFB2B1" stroke-width="5" stroke-linejoin="round"/>
<path d="M200.76 503.587C200.76 508.623 196.678 512.705 191.642 512.705C186.606 512.705 182.524 508.623 182.524 503.587C182.524 498.551 186.606 494.468 191.642 494.468C196.678 494.468 200.76 498.551 200.76 503.587Z" fill="#FF383D"/>
<path opacity="0.13" d="M1160 700.367C1160 661.357 1128.38 629.733 1089.37 629.733C1050.36 629.733 1018.74 661.357 1018.74 700.367C1018.74 739.376 1050.36 771.001 1089.37 771.001C1128.38 771.001 1160 739.376 1160 700.367Z" fill="#FF383D"/>
<path d="M1049.44 706.918H1042.88L1041.41 711H1039.29L1045.26 695.359H1047.06L1053.05 711H1050.93L1049.44 706.918ZM1043.51 705.221H1048.83L1046.16 697.905L1043.51 705.221ZM1060.89 704.673H1057.21V711H1055.14V695.359H1060.32C1062.08 695.359 1063.43 695.76 1064.38 696.562C1065.33 697.365 1065.81 698.532 1065.81 700.064C1065.81 701.038 1065.54 701.887 1065.01 702.61C1064.49 703.334 1063.76 703.874 1062.82 704.232L1066.5 710.871V711H1064.28L1060.89 704.673ZM1057.21 702.986H1060.38C1061.41 702.986 1062.22 702.721 1062.82 702.191C1063.43 701.661 1063.74 700.952 1063.74 700.064C1063.74 699.098 1063.45 698.356 1062.87 697.841C1062.29 697.325 1061.46 697.064 1060.37 697.057H1057.21V702.986ZM1074.45 704.673H1070.77V711H1068.7V695.359H1073.88C1075.64 695.359 1076.99 695.76 1077.94 696.562C1078.89 697.365 1079.37 698.532 1079.37 700.064C1079.37 701.038 1079.1 701.887 1078.57 702.61C1078.05 703.334 1077.32 703.874 1076.38 704.232L1080.05 710.871V711H1077.84L1074.45 704.673ZM1070.77 702.986H1073.94C1074.96 702.986 1075.78 702.721 1076.38 702.191C1076.99 701.661 1077.29 700.952 1077.29 700.064C1077.29 699.098 1077 698.356 1076.42 697.841C1075.85 697.325 1075.02 697.064 1073.93 697.057H1070.77V702.986ZM1091.11 703.771H1084.33V709.313H1092.2V711H1082.27V695.359H1092.09V697.057H1084.33V702.084H1091.11V703.771ZM1096.83 704.877V711H1094.77V695.359H1100.54C1102.25 695.359 1103.59 695.796 1104.56 696.67C1105.53 697.544 1106.02 698.7 1106.02 700.14C1106.02 701.658 1105.54 702.829 1104.59 703.652C1103.64 704.469 1102.29 704.877 1100.52 704.877H1096.83ZM1096.83 703.19H1100.54C1101.64 703.19 1102.49 702.933 1103.07 702.417C1103.66 701.894 1103.95 701.142 1103.95 700.161C1103.95 699.23 1103.66 698.485 1103.07 697.927C1102.49 697.368 1101.68 697.078 1100.66 697.057H1096.83V703.19ZM1110.86 711H1108.8V695.359H1110.86V711ZM1126.67 703.685C1126.67 705.217 1126.42 706.556 1125.9 707.702C1125.38 708.841 1124.65 709.711 1123.71 710.312C1122.76 710.914 1121.66 711.215 1120.4 711.215C1119.17 711.215 1118.08 710.914 1117.12 710.312C1116.17 709.704 1115.43 708.841 1114.9 707.724C1114.38 706.599 1114.11 705.299 1114.09 703.824V702.696C1114.09 701.192 1114.36 699.864 1114.88 698.711C1115.4 697.558 1116.14 696.677 1117.09 696.068C1118.05 695.452 1119.15 695.145 1120.38 695.145C1121.63 695.145 1122.74 695.449 1123.69 696.058C1124.65 696.659 1125.38 697.536 1125.9 698.689C1126.42 699.835 1126.67 701.171 1126.67 702.696V703.685ZM1124.62 702.675C1124.62 700.82 1124.25 699.398 1123.5 698.41C1122.76 697.415 1121.72 696.917 1120.38 696.917C1119.08 696.917 1118.05 697.415 1117.3 698.41C1116.55 699.398 1116.17 700.773 1116.15 702.535V703.685C1116.15 705.482 1116.52 706.896 1117.27 707.928C1118.03 708.952 1119.08 709.464 1120.4 709.464C1121.73 709.464 1122.76 708.98 1123.49 708.014C1124.22 707.04 1124.6 705.647 1124.62 703.835V702.675ZM1134.38 704.028C1132.61 703.52 1131.32 702.897 1130.51 702.159C1129.71 701.414 1129.31 700.498 1129.31 699.409C1129.31 698.177 1129.8 697.16 1130.78 696.358C1131.77 695.549 1133.05 695.145 1134.62 695.145C1135.7 695.145 1136.65 695.352 1137.49 695.768C1138.34 696.183 1138.99 696.756 1139.45 697.486C1139.91 698.217 1140.14 699.015 1140.14 699.882H1138.07C1138.07 698.937 1137.77 698.195 1137.17 697.658C1136.57 697.114 1135.72 696.842 1134.62 696.842C1133.61 696.842 1132.81 697.067 1132.24 697.519C1131.67 697.963 1131.39 698.582 1131.39 699.377C1131.39 700.014 1131.66 700.555 1132.2 700.999C1132.74 701.436 1133.66 701.837 1134.96 702.202C1136.26 702.567 1137.28 702.972 1138.01 703.416C1138.74 703.853 1139.29 704.365 1139.64 704.952C1140 705.539 1140.18 706.23 1140.18 707.025C1140.18 708.293 1139.68 709.31 1138.69 710.076C1137.71 710.835 1136.38 711.215 1134.73 711.215C1133.66 711.215 1132.65 711.011 1131.72 710.603C1130.79 710.187 1130.07 709.621 1129.56 708.905C1129.06 708.189 1128.81 707.376 1128.81 706.467H1130.88C1130.88 707.412 1131.23 708.16 1131.93 708.712C1132.63 709.256 1133.56 709.528 1134.73 709.528C1135.82 709.528 1136.65 709.306 1137.23 708.862C1137.81 708.418 1138.1 707.813 1138.1 707.047C1138.1 706.281 1137.83 705.69 1137.3 705.274C1136.76 704.852 1135.79 704.437 1134.38 704.028Z" fill="#FA5652"/>
<path d="M1089.87 613.802C1041.1 613.802 1001.56 653.34 1001.56 702.112C1001.56 750.887 1041.1 790.425 1089.87 790.425V834.036" stroke="#FFD6D7" stroke-width="2.4" stroke-miterlimit="10"/>
<path d="M1097.13 836.239C1097.13 832.228 1093.88 828.977 1089.86 828.977C1085.85 828.977 1082.6 832.228 1082.6 836.239C1082.6 840.248 1085.85 843.502 1089.86 843.502C1093.88 843.502 1097.13 840.248 1097.13 836.239Z" fill="#F2AEB0"/>
<path d="M725.738 754.401H816.846C824.124 754.401 831.009 751.099 835.564 745.422L861.096 713.606C865.651 707.93 872.536 704.627 879.814 704.627H973.995" stroke="#FFA6A6" stroke-width="5" stroke-linejoin="round"/>
<path d="M979.943 703.913C979.943 708.949 975.861 713.032 970.824 713.032C965.788 713.032 961.706 708.949 961.706 703.913C961.706 698.877 965.788 694.795 970.824 694.795C975.861 694.795 979.943 698.877 979.943 703.913Z" fill="#FF383D"/>
<path opacity="0.15" d="M1160 214.367C1160 175.357 1128.38 143.733 1089.37 143.733C1050.36 143.733 1018.74 175.357 1018.74 214.367C1018.74 253.377 1050.36 285.001 1089.37 285.001C1128.38 285.001 1160 253.377 1160 214.367Z" fill="#FF383D"/>
<path d="M1039.77 217V201.359H1044.19C1045.55 201.359 1046.75 201.66 1047.8 202.262C1048.84 202.863 1049.65 203.719 1050.21 204.829C1050.79 205.939 1051.08 207.214 1051.08 208.653V209.652C1051.08 211.128 1050.8 212.42 1050.23 213.53C1049.66 214.64 1048.85 215.493 1047.79 216.087C1046.73 216.681 1045.51 216.986 1044.1 217H1039.77ZM1041.84 203.057V215.313H1044.01C1045.6 215.313 1046.83 214.819 1047.71 213.831C1048.6 212.843 1049.04 211.436 1049.04 209.609V208.696C1049.04 206.92 1048.62 205.542 1047.79 204.561C1046.96 203.572 1045.77 203.071 1044.24 203.057H1041.84ZM1066.24 209.685C1066.24 211.217 1065.98 212.556 1065.47 213.702C1064.95 214.841 1064.22 215.711 1063.28 216.312C1062.33 216.914 1061.23 217.215 1059.97 217.215C1058.74 217.215 1057.64 216.914 1056.69 216.312C1055.74 215.704 1055 214.841 1054.47 213.724C1053.95 212.599 1053.68 211.299 1053.66 209.824V208.696C1053.66 207.192 1053.92 205.864 1054.45 204.711C1054.97 203.558 1055.71 202.677 1056.66 202.068C1057.62 201.452 1058.72 201.145 1059.95 201.145C1061.2 201.145 1062.3 201.449 1063.26 202.058C1064.22 202.659 1064.95 203.536 1065.47 204.689C1065.98 205.835 1066.24 207.171 1066.24 208.696V209.685ZM1064.19 208.675C1064.19 206.82 1063.82 205.398 1063.07 204.41C1062.33 203.415 1061.29 202.917 1059.95 202.917C1058.64 202.917 1057.62 203.415 1056.86 204.41C1056.12 205.398 1055.74 206.773 1055.71 208.535V209.685C1055.71 211.482 1056.09 212.896 1056.84 213.928C1057.6 214.952 1058.64 215.464 1059.97 215.464C1061.3 215.464 1062.33 214.98 1063.06 214.014C1063.79 213.04 1064.17 211.647 1064.19 209.835V208.675ZM1075.07 210.673H1071.4V217H1069.33V201.359H1074.5C1076.26 201.359 1077.62 201.76 1078.56 202.562C1079.52 203.365 1079.99 204.532 1079.99 206.064C1079.99 207.038 1079.73 207.887 1079.2 208.61C1078.67 209.334 1077.94 209.874 1077.01 210.232L1080.68 216.871V217H1078.47L1075.07 210.673ZM1071.4 208.986H1074.57C1075.59 208.986 1076.4 208.721 1077.01 208.191C1077.61 207.661 1077.92 206.952 1077.92 206.064C1077.92 205.098 1077.63 204.356 1077.05 203.841C1076.48 203.325 1075.65 203.064 1074.56 203.057H1071.4V208.986ZM1091.73 209.771H1084.96V215.313H1092.83V217H1082.89V201.359H1092.72V203.057H1084.96V208.084H1091.73V209.771ZM1100 210.028C1098.24 209.52 1096.95 208.897 1096.14 208.159C1095.34 207.414 1094.93 206.498 1094.93 205.409C1094.93 204.177 1095.43 203.16 1096.41 202.358C1097.39 201.549 1098.68 201.145 1100.25 201.145C1101.33 201.145 1102.28 201.352 1103.12 201.768C1103.97 202.183 1104.62 202.756 1105.08 203.486C1105.54 204.217 1105.77 205.015 1105.77 205.882H1103.7C1103.7 204.937 1103.4 204.195 1102.8 203.658C1102.2 203.114 1101.35 202.842 1100.25 202.842C1099.24 202.842 1098.44 203.067 1097.87 203.519C1097.3 203.963 1097.02 204.582 1097.02 205.377C1097.02 206.014 1097.29 206.555 1097.82 206.999C1098.37 207.436 1099.29 207.837 1100.58 208.202C1101.89 208.567 1102.91 208.972 1103.64 209.416C1104.37 209.853 1104.92 210.365 1105.27 210.952C1105.63 211.539 1105.81 212.23 1105.81 213.025C1105.81 214.293 1105.31 215.31 1104.32 216.076C1103.33 216.835 1102.01 217.215 1100.36 217.215C1099.29 217.215 1098.28 217.011 1097.35 216.603C1096.42 216.187 1095.7 215.621 1095.19 214.905C1094.69 214.189 1094.44 213.376 1094.44 212.467H1096.51C1096.51 213.412 1096.86 214.16 1097.56 214.712C1098.26 215.256 1099.19 215.528 1100.36 215.528C1101.45 215.528 1102.28 215.306 1102.86 214.862C1103.44 214.418 1103.73 213.813 1103.73 213.047C1103.73 212.281 1103.46 211.69 1102.93 211.274C1102.39 210.852 1101.42 210.437 1100 210.028ZM1113.92 217V201.359H1118.33C1119.69 201.359 1120.89 201.66 1121.94 202.262C1122.99 202.863 1123.79 203.719 1124.36 204.829C1124.93 205.939 1125.22 207.214 1125.23 208.653V209.652C1125.23 211.128 1124.94 212.42 1124.37 213.53C1123.8 214.64 1122.99 215.493 1121.93 216.087C1120.88 216.681 1119.65 216.986 1118.25 217H1113.92ZM1115.98 203.057V215.313H1118.15C1119.74 215.313 1120.97 214.819 1121.85 213.831C1122.74 212.843 1123.19 211.436 1123.19 209.609V208.696C1123.19 206.92 1122.77 205.542 1121.93 204.561C1121.1 203.572 1119.92 203.071 1118.38 203.057H1115.98ZM1137.19 209.771H1130.42V215.313H1138.29V217H1128.35V201.359H1138.18V203.057H1130.42V208.084H1137.19V209.771ZM1060.03 238.037C1059.84 239.691 1059.23 240.97 1058.2 241.872C1057.17 242.767 1055.81 243.215 1054.1 243.215C1052.26 243.215 1050.77 242.552 1049.66 241.228C1048.55 239.903 1047.99 238.13 1047.99 235.91V234.406C1047.99 232.952 1048.25 231.674 1048.76 230.571C1049.29 229.468 1050.03 228.623 1050.98 228.036C1051.93 227.442 1053.03 227.145 1054.29 227.145C1055.95 227.145 1057.28 227.61 1058.28 228.541C1059.28 229.465 1059.87 230.747 1060.03 232.387H1057.96C1057.78 231.141 1057.39 230.238 1056.79 229.68C1056.19 229.121 1055.36 228.842 1054.29 228.842C1052.97 228.842 1051.93 229.329 1051.18 230.303C1050.44 231.277 1050.06 232.662 1050.06 234.46V235.975C1050.06 237.672 1050.42 239.022 1051.13 240.024C1051.84 241.027 1052.83 241.528 1054.1 241.528C1055.25 241.528 1056.13 241.271 1056.74 240.755C1057.35 240.232 1057.76 239.326 1057.96 238.037H1060.03ZM1071.5 238.918H1064.94L1063.47 243H1061.34L1067.32 227.359H1069.12L1075.1 243H1072.99L1071.5 238.918ZM1065.57 237.221H1070.88L1068.22 229.905L1065.57 237.221ZM1077.21 243V227.359H1082.32C1084.02 227.359 1085.3 227.71 1086.15 228.412C1087.01 229.114 1087.44 230.152 1087.44 231.527C1087.44 232.258 1087.23 232.906 1086.81 233.472C1086.4 234.03 1085.83 234.464 1085.12 234.771C1085.96 235.008 1086.63 235.459 1087.11 236.125C1087.61 236.784 1087.86 237.572 1087.86 238.488C1087.86 239.892 1087.4 240.995 1086.49 241.797C1085.58 242.599 1084.3 243 1082.63 243H1077.21ZM1079.27 235.685V241.313H1082.68C1083.64 241.313 1084.39 241.066 1084.94 240.572C1085.5 240.071 1085.78 239.383 1085.78 238.51C1085.78 236.626 1084.76 235.685 1082.71 235.685H1079.27ZM1079.27 234.03H1082.39C1083.29 234.03 1084.01 233.805 1084.55 233.354C1085.09 232.902 1085.36 232.29 1085.36 231.517C1085.36 230.657 1085.11 230.034 1084.61 229.647C1084.11 229.254 1083.35 229.057 1082.32 229.057H1079.27V234.03ZM1099.76 235.771H1092.98V241.313H1100.85V243H1090.92V227.359H1100.75V229.057H1092.98V234.084H1099.76V235.771ZM1114.93 238.037C1114.73 239.691 1114.12 240.97 1113.09 241.872C1112.06 242.767 1110.7 243.215 1109 243.215C1107.15 243.215 1105.67 242.552 1104.55 241.228C1103.44 239.903 1102.88 238.13 1102.88 235.91V234.406C1102.88 232.952 1103.14 231.674 1103.66 230.571C1104.18 229.468 1104.92 228.623 1105.87 228.036C1106.82 227.442 1107.93 227.145 1109.18 227.145C1110.84 227.145 1112.17 227.61 1113.17 228.541C1114.18 229.465 1114.76 230.747 1114.93 232.387H1112.85C1112.67 231.141 1112.28 230.238 1111.68 229.68C1111.09 229.121 1110.25 228.842 1109.18 228.842C1107.86 228.842 1106.83 229.329 1106.07 230.303C1105.33 231.277 1104.96 232.662 1104.96 234.46V235.975C1104.96 237.672 1105.31 239.022 1106.02 240.024C1106.73 241.027 1107.72 241.528 1109 241.528C1110.14 241.528 1111.02 241.271 1111.63 240.755C1112.24 240.232 1112.65 239.326 1112.85 238.037H1114.93ZM1109.67 243.097L1109.54 243.655C1110.64 243.849 1111.19 244.468 1111.19 245.514C1111.19 246.208 1110.9 246.756 1110.33 247.157C1109.76 247.565 1108.96 247.77 1107.93 247.77L1107.86 246.62C1108.42 246.62 1108.86 246.527 1109.17 246.341C1109.48 246.155 1109.64 245.893 1109.64 245.557C1109.64 245.242 1109.53 245.009 1109.3 244.858C1109.07 244.708 1108.6 244.601 1107.9 244.536L1108.24 243.097H1109.67ZM1126.39 238.918H1119.83L1118.36 243H1116.24L1122.21 227.359H1124.01L1130 243H1127.88L1126.39 238.918ZM1120.46 237.221H1125.78L1123.11 229.905L1120.46 237.221Z" fill="#FF383D"/>
<path d="M1089.87 127.65C1041.1 127.65 1001.56 167.188 1001.56 215.96C1001.56 264.733 1041.1 304.273 1089.87 304.273V347.884" stroke="#FFD6D7" stroke-width="2.4" stroke-miterlimit="10"/>
<path d="M1097.13 350.088C1097.13 346.076 1093.88 342.826 1089.87 342.826C1085.86 342.826 1082.61 346.076 1082.61 350.088C1082.61 354.099 1085.86 357.35 1089.87 357.35C1093.88 357.35 1097.13 354.099 1097.13 350.088Z" fill="#F2AEB0"/>
<path d="M975.839 222.86H849.559C843.441 222.86 837.555 225.196 833.102 229.391L804.567 256.272C800.114 260.466 794.228 262.802 788.11 262.802H674.12" stroke="#FFB2B1" stroke-width="5" stroke-linejoin="round"/>
<path d="M979.941 222.146C979.941 227.182 975.858 231.265 970.822 231.265C965.786 231.265 961.704 227.182 961.704 222.146C961.704 217.11 965.786 213.028 970.822 213.028C975.858 213.028 979.941 217.11 979.941 222.146Z" fill="#FF383D"/>
<defs>
<filter id="filter0_d" x="36.5278" y="718.359" width="90.0088" height="41.6406" filterUnits="userSpaceOnUse" color-interpolation-filters="sRGB">
<feFlood flood-opacity="0" result="BackgroundImageFix"/>
<feColorMatrix in="SourceAlpha" type="matrix" values="0 0 0 0 0 0 0 0 0 0 0 0 0 0 0 0 0 0 127 0"/>
<feOffset/>
<feColorMatrix type="matrix" values="0 0 0 0 0 0 0 0 0 0 0 0 0 0 0 0 0 0 0.1 0"/>
<feBlend mode="normal" in2="BackgroundImageFix" result="effect1_dropShadow"/>
<feBlend mode="normal" in="SourceGraphic" in2="effect1_dropShadow" result="shape"/>
</filter>
<linearGradient id="paint0_linear" x1="279.615" y1="651.802" x2="343.866" y2="780.176" gradientUnits="userSpaceOnUse">
<stop stop-color="#FFC8C8"/>
<stop offset="1" stop-color="#FFF2F5"/>
</linearGradient>
<linearGradient id="paint1_linear" x1="911.179" y1="248.5" x2="389.51" y2="38.2379" gradientUnits="userSpaceOnUse">
<stop stop-color="white"/>
<stop offset="1" stop-color="#FFD5D5"/>
</linearGradient>
<linearGradient id="paint2_linear" x1="843.946" y1="153.536" x2="682.872" y2="126.968" gradientUnits="userSpaceOnUse">
<stop stop-color="#FFD3D3"/>
<stop offset="1" stop-color="#FFF6F6"/>
</linearGradient>
<linearGradient id="paint3_linear" x1="205.431" y1="428.026" x2="962.765" y2="428.026" gradientUnits="userSpaceOnUse">
<stop stop-color="#FFF8F5"/>
<stop offset="1" stop-color="#FFDEDE"/>
</linearGradient>
<linearGradient id="paint4_linear" x1="893.009" y1="609.535" x2="694.623" y2="627.819" gradientUnits="userSpaceOnUse">
<stop stop-color="#FFC2C2"/>
<stop offset="1" stop-color="white"/>
</linearGradient>
</defs>
</svg>
