<svg width="687" height="628" viewBox="0 0 687 628" fill="none" xmlns="http://www.w3.org/2000/svg">
<g opacity="0.62">
<path d="M238.057 607.851C198.682 619.087 159.392 622.956 118.399 612.475C72.7087 600.789 35.0795 558.705 14.8891 517.821C7.38699 502.636 1.70945 485.837 3.64272 469.013C8.12336 430.15 45.2321 428.1 76.1049 436.365C93.5085 441.016 109.187 450.103 124.687 459.101C150.419 474.049 181.17 482.534 203.833 502.438C211.436 509.135 216.972 516.956 225.975 522.045C239.981 529.968 256.262 534.314 270.699 541.631C283.023 547.905 296.618 557.807 295.772 571.604C294.888 585.754 279.561 593.845 266.239 598.666C256.806 602.104 247.437 605.19 238.057 607.851Z" fill="url(#paint0_linear)"/>
<path d="M127.767 96.0294C196.696 6.9868 329.521 -22.1788 433.098 19.411C483.043 39.4746 523.586 77.2777 560.725 116.211C593.463 150.525 625.004 187.3 646.148 230.102C660.585 259.318 670.065 293.849 676.278 325.921C685.562 373.941 670.629 434.131 609.824 425.843C595.558 423.9 583.482 417.97 570.361 412.622C559.748 408.287 548.985 409.814 537.84 407.324C509.787 401.062 483.145 388.92 458.099 375.085C407.059 346.866 361.116 309.994 308.387 284.764C265.173 264.112 218.408 251.917 170.612 248.838C150.448 247.541 129.156 247.625 111.682 237.477C68.6137 212.447 92.3651 153.716 111.084 121.013C116.046 112.3 121.621 103.951 127.767 96.0294Z" fill="url(#paint1_linear)"/>
<path d="M621.659 141.059C631.458 151.119 670.666 179.363 673.341 149.269C673.996 141.771 671.047 134.266 666.756 128.476C661.848 121.831 656.043 118.144 652.362 110.53C647.851 101.333 642.606 92.6263 636.694 84.5224C624.627 67.6699 610.293 51.8994 592.188 44.1388C579.489 38.7011 557.427 38.4865 550.214 54.7461C539.708 78.4151 577.863 85.2627 589.03 94.8279C599.63 103.883 605.03 118.641 613.127 130.608C615.686 134.381 618.542 137.88 621.659 141.059Z" fill="url(#paint2_linear)"/>
<path d="M431.395 99.5515C452.589 113.886 467.881 134.312 486.965 151.187C518.739 179.277 564.189 187.464 601.361 207.944C639.263 228.837 666.96 259.353 677.706 301.508C691.592 355.921 689.256 419.449 671.185 473.362C651.287 532.707 610.924 570.427 553.906 593.697C496.922 616.953 434.868 625.584 373.596 624.328C367.683 624.212 361.787 623.98 355.874 623.647C223.066 616.102 49.2827 558.303 13.0176 412.855C12.6849 411.525 12.3695 410.198 12.054 408.851C8.39195 392.67 6.68021 376.109 6.95535 359.522C7.78551 300.707 22.1023 236.629 46.1033 182.948C62.2483 146.807 93.9824 117.38 126.753 97.0499C172.795 68.4885 227.079 63.8639 280.845 63.459C320.658 63.1608 365.304 64.9373 401.839 82.4476C412.104 87.4024 421.984 93.1198 431.395 99.5515Z" fill="url(#paint3_linear)"/>
</g>
<path d="M338.369 298.171C339.279 302.202 343.284 304.733 347.316 303.822L363.917 300.075C372.368 298.168 381.154 298.22 389.558 300.324C392.064 300.951 394.776 300.937 397.466 300.138C404.594 298.021 409.132 290.811 407.96 283.469C406.584 274.849 398.261 269.309 389.88 271.201C387.61 271.713 385.578 272.717 383.871 274.074C377.021 279.521 369.156 283.55 360.618 285.478L344.021 289.224C339.989 290.134 337.459 294.14 338.369 298.171Z" fill="#FB4C47"/>
<path d="M250.16 367.89C247.271 366.065 243.45 366.928 241.625 369.816L234.111 381.712C230.286 387.768 225.118 392.874 218.975 396.557C217.144 397.655 215.566 399.249 214.461 401.289C211.532 406.693 213.094 413.561 218.071 417.168C223.914 421.404 232.019 419.777 235.813 413.771C236.84 412.145 237.441 410.37 237.646 408.579C238.466 401.39 240.709 394.436 244.574 388.319L252.087 376.425C253.911 373.535 253.048 369.714 250.16 367.89Z" fill="#C63F3B"/>
<path d="M317.936 260.6C320.959 262.51 324.957 261.607 326.867 258.584L334.73 246.136C338.733 239.799 344.14 234.457 350.568 230.602C352.485 229.452 354.136 227.785 355.292 225.65C358.357 219.995 356.723 212.808 351.514 209.034C345.4 204.602 336.918 206.305 332.949 212.588C331.873 214.291 331.245 216.147 331.03 218.022C330.172 225.545 327.825 232.821 323.781 239.223L315.919 251.669C314.011 254.692 314.913 258.691 317.936 260.6Z" fill="#C63F3B"/>
<path d="M298.486 361.32C294.455 362.23 291.924 366.235 292.834 370.267L296.581 386.868C298.489 395.319 298.436 404.105 296.333 412.509C295.705 415.015 295.72 417.727 296.518 420.417C298.635 427.544 305.845 432.083 313.187 430.911C321.807 429.535 327.347 421.212 325.456 412.831C324.943 410.561 323.94 408.529 322.583 406.822C317.135 399.972 313.106 392.107 311.179 383.569L307.432 366.972C306.523 362.94 302.517 360.41 298.486 361.32Z" fill="#FB4C47"/>
<path d="M322.58 406.823C317.133 399.972 313.103 392.107 311.176 383.57L307.43 366.971C306.52 362.94 302.514 360.41 298.482 361.32C294.451 362.23 291.921 366.235 292.831 370.267L296.578 386.865C298.505 395.402 302.534 403.267 307.981 410.118C309.338 411.825 310.342 413.856 310.854 416.127C312.073 421.526 310.204 426.898 306.417 430.407C308.555 431.08 310.863 431.282 313.185 430.911C321.804 429.535 327.345 421.212 325.453 412.831C324.94 410.561 323.937 408.529 322.58 406.823Z" fill="#C63F3B"/>
<path d="M225.573 291.953C238.742 288.98 247.007 275.895 244.035 262.726C241.062 249.557 227.977 241.291 214.808 244.264C201.639 247.236 193.373 260.322 196.345 273.491C199.318 286.66 212.404 294.926 225.573 291.953Z" fill="#FF8F8C"/>
<path d="M214.813 244.264C212.266 244.838 209.906 245.795 207.771 247.054C218.065 247.971 227.043 255.399 229.441 266.021C231.839 276.643 226.922 287.208 218.02 292.458C220.488 292.678 223.031 292.528 225.578 291.953C238.747 288.98 247.013 275.895 244.04 262.726C241.067 249.557 227.981 241.291 214.813 244.264Z" fill="#FB4C47"/>
<path d="M304.429 387.66C347.43 377.953 374.419 335.226 364.713 292.226C355.006 249.226 312.279 222.236 269.279 231.942C226.279 241.649 199.289 284.376 208.996 327.376C218.702 370.376 261.429 397.366 304.429 387.66Z" fill="#FB4C47"/>
<path d="M269.28 231.942C266.818 232.498 264.411 233.166 262.058 233.933C302.466 228.68 340.965 254.983 350.115 295.521C359.266 336.059 335.8 376.349 297.054 388.963C299.508 388.644 301.969 388.215 304.431 387.659C347.431 377.953 374.421 335.226 364.714 292.225C355.008 249.225 312.28 222.235 269.28 231.942Z" fill="#C63F3B"/>
<path d="M313.615 292.411C322.35 290.44 327.832 281.761 325.861 273.026C323.889 264.292 315.21 258.809 306.476 260.781C297.741 262.753 292.259 271.432 294.23 280.166C296.202 288.901 304.881 294.383 313.615 292.411Z" fill="#C63F3B"/>
<path d="M306.474 260.781C303.84 261.376 301.505 262.583 299.578 264.215C305.233 265.711 309.883 270.221 311.26 276.322C312.637 282.422 310.375 288.493 305.911 292.272C308.353 292.918 310.98 293.006 313.614 292.411C322.348 290.44 327.831 281.761 325.859 273.026C323.887 264.292 315.208 258.809 306.474 260.781Z" fill="white"/>
<path d="M268.307 357.205C274.22 355.87 277.931 349.995 276.596 344.082C275.261 338.17 269.386 334.458 263.474 335.793C257.561 337.128 253.85 343.003 255.184 348.916C256.519 354.828 262.394 358.539 268.307 357.205Z" fill="white"/>
<path d="M356.154 370.187C364.216 368.367 369.277 360.356 367.457 352.293C365.637 344.231 357.625 339.17 349.563 340.99C341.5 342.81 336.44 350.821 338.259 358.884C340.079 366.947 348.091 372.007 356.154 370.187Z" fill="#FB4C47"/>
<path d="M349.562 340.99C346.902 341.591 344.572 342.869 342.704 344.596C347.636 346.136 351.638 350.187 352.857 355.59C354.077 360.993 352.204 366.369 348.411 369.878C350.84 370.636 353.493 370.789 356.153 370.189C364.216 368.369 369.276 360.357 367.456 352.295C365.636 344.232 357.625 339.17 349.562 340.99Z" fill="#C63F3B"/>
<path d="M235.331 321.43C236.241 325.461 233.711 329.467 229.68 330.377L213.079 334.124C204.628 336.032 196.716 339.853 190.031 345.363C188.038 347.006 185.582 348.159 182.81 348.593C175.464 349.743 168.269 345.182 166.173 338.048C163.713 329.673 168.849 321.095 177.23 319.203C179.5 318.69 181.765 318.724 183.89 319.216C192.416 321.192 201.249 321.452 209.787 319.525L226.385 315.778C230.415 314.868 234.421 317.399 235.331 321.43Z" fill="#C63F3B"/>
<path d="M275.231 258.282C279.262 257.372 281.793 253.367 280.883 249.335L277.135 232.735C275.228 224.284 275.28 215.497 277.384 207.093C278.011 204.587 277.997 201.875 277.198 199.185C275.081 192.058 267.871 187.519 260.529 188.691C251.91 190.067 246.369 198.39 248.261 206.771C248.773 209.041 249.777 211.073 251.134 212.78C256.581 219.63 260.61 227.495 262.538 236.033L266.284 252.631C267.194 256.662 271.2 259.192 275.231 258.282Z" fill="#FB4C47"/>
<path d="M277.199 199.185C275.082 192.058 267.872 187.52 260.53 188.691C257.463 189.181 254.79 190.553 252.699 192.491C257.323 193.945 261.152 197.607 262.6 202.481C263.399 205.171 263.413 207.883 262.786 210.388C260.682 218.793 260.63 227.579 262.537 236.03L266.285 252.631C267.194 256.662 271.2 259.192 275.232 258.282C279.263 257.372 281.793 253.367 280.883 249.335L277.136 232.735C275.228 224.284 275.281 215.497 277.385 207.093C278.012 204.587 277.998 201.875 277.199 199.185Z" fill="#C63F3B"/>
<path d="M391.349 271.857C389.071 272.327 387.022 273.292 385.292 274.617C384.986 274.852 384.675 275.08 384.365 275.309C389.584 277.017 393.708 281.551 394.542 287.473C395.255 292.538 393.266 297.489 389.622 300.732C389.912 300.805 390.203 300.875 390.492 300.953C392.985 301.625 395.695 301.661 398.398 300.912C405.559 298.928 410.226 291.806 409.19 284.448C407.973 275.809 399.758 270.12 391.349 271.857Z" fill="#C63F3B"/>
<g opacity="0.63">
<path d="M419.058 454.081C419.955 455.984 422.225 456.8 424.128 455.903L431.964 452.209C435.953 450.329 440.325 449.385 444.733 449.504C446.047 449.539 447.394 449.233 448.642 448.539C451.951 446.701 453.41 442.617 452.018 439.098C450.383 434.966 445.636 433.131 441.68 434.996C440.608 435.501 439.709 436.224 439.011 437.087C436.208 440.549 432.744 443.419 428.714 445.319L420.88 449.012C418.977 449.909 418.161 452.179 419.058 454.081Z" fill="#FFC700"/>
<path d="M378.745 488.391C377.109 487.803 375.305 488.653 374.717 490.29L372.295 497.03C371.063 500.462 369.058 503.569 366.412 506.077C365.623 506.825 365.015 507.791 364.691 508.926C363.832 511.935 365.365 515.175 368.237 516.419C371.608 517.879 375.456 516.176 376.678 512.773C377.009 511.852 377.112 510.904 377.016 509.991C376.631 506.328 376.978 502.625 378.223 499.159L380.645 492.42C381.232 490.783 380.382 488.979 378.745 488.391Z" fill="#D09700"/>
<path d="M400.59 427.599C402.303 428.214 404.19 427.325 404.805 425.612L407.34 418.559C408.63 414.968 410.727 411.717 413.496 409.092C414.321 408.309 414.958 407.299 415.297 406.11C416.196 402.962 414.591 399.571 411.586 398.27C408.059 396.742 404.032 398.524 402.753 402.085C402.407 403.049 402.299 404.041 402.399 404.996C402.803 408.829 402.439 412.704 401.136 416.331L398.603 423.383C397.988 425.096 398.877 426.983 400.59 427.599Z" fill="#D09700"/>
<path d="M402.031 479.796C400.128 480.693 399.312 482.963 400.209 484.866L403.903 492.702C405.784 496.691 406.727 501.063 406.609 505.471C406.573 506.785 406.88 508.132 407.573 509.38C409.412 512.689 413.495 514.148 417.014 512.756C421.146 511.121 422.981 506.374 421.116 502.418C420.611 501.346 419.888 500.447 419.026 499.749C415.563 496.946 412.693 493.482 410.793 489.452L407.1 481.618C406.204 479.715 403.934 478.899 402.031 479.796Z" fill="#FFC700"/>
<path d="M419.026 499.747C415.563 496.944 412.693 493.48 410.793 489.45L407.1 481.616C406.203 479.713 403.934 478.897 402.031 479.794C400.128 480.691 399.312 482.961 400.209 484.864L403.902 492.699C405.802 496.729 408.672 500.192 412.135 502.996C412.998 503.694 413.72 504.593 414.225 505.665C415.427 508.213 415.091 511.089 413.596 513.25C414.733 513.349 415.902 513.194 417.015 512.754C421.146 511.119 422.981 506.372 421.116 502.416C420.611 501.345 419.889 500.446 419.026 499.747Z" fill="#D09700"/>
<path d="M358.151 453.37C364.367 450.44 367.03 443.026 364.1 436.81C361.17 430.594 353.756 427.93 347.54 430.86C341.324 433.79 338.66 441.205 341.591 447.42C344.521 453.636 351.935 456.3 358.151 453.37Z" fill="#D09700"/>
<path d="M347.541 430.86C346.339 431.426 345.271 432.162 344.35 433.023C349.566 432.343 354.847 435.044 357.21 440.058C359.574 445.071 358.296 450.864 354.452 454.454C355.702 454.291 356.949 453.936 358.152 453.37C364.368 450.44 367.031 443.025 364.101 436.809C361.171 430.593 353.757 427.93 347.541 430.86Z" fill="#FFC700"/>
<path d="M407.89 492.23C428.187 482.662 436.885 458.452 427.317 438.155C417.75 417.858 393.54 409.16 373.243 418.728C352.946 428.295 344.248 452.505 353.816 472.802C363.383 493.099 387.593 501.797 407.89 492.23Z" fill="#FFC700"/>
<path d="M373.249 418.728C372.087 419.276 370.965 419.874 369.88 420.514C389.38 413.446 411.413 422.269 420.433 441.404C429.453 460.538 422.237 483.149 404.375 493.692C405.559 493.262 406.734 492.777 407.897 492.23C428.194 482.662 436.891 458.452 427.324 438.155C417.756 417.858 393.546 409.161 373.249 418.728Z" fill="#D09700"/>
<path d="M396.958 445.825C398.459 445.117 399.103 443.327 398.395 441.826C397.688 440.325 395.897 439.682 394.396 440.389C392.895 441.097 392.252 442.887 392.959 444.388C393.667 445.889 395.457 446.533 396.958 445.825Z" fill="white"/>
<path d="M386.578 481.081C389.369 479.765 390.565 476.435 389.249 473.644C387.933 470.853 384.604 469.657 381.813 470.973C379.022 472.288 377.826 475.618 379.141 478.409C380.457 481.2 383.786 482.396 386.578 481.081Z" fill="white"/>
<path d="M373.312 454.918C377.585 452.904 379.416 447.806 377.402 443.533C375.388 439.26 370.29 437.429 366.017 439.443C361.744 441.457 359.913 446.554 361.927 450.828C363.941 455.101 369.038 456.932 373.312 454.918Z" fill="white"/>
<path d="M431.663 477.84C435.468 476.046 437.099 471.506 435.305 467.7C433.511 463.895 428.972 462.264 425.166 464.058C421.36 465.852 419.729 470.391 421.523 474.197C423.317 478.003 427.857 479.634 431.663 477.84Z" fill="#FFC700"/>
<path d="M425.167 464.058C423.912 464.65 422.894 465.542 422.157 466.607C424.778 466.828 427.213 468.399 428.416 470.949C429.618 473.5 429.28 476.378 427.783 478.541C429.073 478.649 430.408 478.433 431.664 477.841C435.47 476.047 437.101 471.507 435.307 467.701C433.513 463.896 428.973 462.264 425.167 464.058Z" fill="#D09700"/>
<path d="M366.251 466.941C367.148 468.844 366.333 471.114 364.43 472.011L356.594 475.705C352.605 477.585 349.095 480.357 346.381 483.833C345.572 484.869 344.479 485.713 343.149 486.234C339.626 487.616 335.547 486.143 333.718 482.83C331.572 478.939 333.178 474.11 337.133 472.245C338.205 471.74 339.334 471.507 340.444 471.517C344.899 471.558 349.318 470.713 353.347 468.813L361.182 465.12C363.085 464.223 365.355 465.039 366.251 466.941Z" fill="#D09700"/>
<path d="M379.107 431.162C381.01 430.265 381.825 427.995 380.928 426.092L377.235 418.256C375.354 414.267 374.411 409.895 374.529 405.487C374.564 404.172 374.258 402.826 373.564 401.578C371.726 398.269 367.643 396.81 364.123 398.202C359.992 399.837 358.157 404.584 360.022 408.54C360.527 409.611 361.249 410.51 362.112 411.209C365.575 414.012 368.445 417.476 370.345 421.506L374.038 429.34C374.934 431.243 377.204 432.059 379.107 431.162Z" fill="#FFC700"/>
<path d="M373.562 401.578C371.724 398.269 367.64 396.81 364.121 398.202C362.651 398.784 361.474 399.76 360.649 400.954C363.107 401.167 365.414 402.564 366.671 404.826C367.365 406.075 367.671 407.421 367.636 408.735C367.518 413.144 368.461 417.516 370.341 421.505L374.035 429.34C374.932 431.243 377.202 432.059 379.105 431.162C381.008 430.265 381.823 427.995 380.926 426.092L377.232 418.256C375.352 414.267 374.409 409.895 374.527 405.487C374.562 404.173 374.256 402.826 373.562 401.578Z" fill="#D09700"/>
</g>
<path d="M484.181 380.705C481.957 379.75 479.38 380.78 478.426 383.005L474.496 392.165C472.496 396.829 469.45 400.977 465.564 404.24C464.405 405.212 463.479 406.503 462.933 408.054C461.487 412.161 463.346 416.792 467.231 418.76C471.792 421.071 477.28 419.028 479.264 414.403C479.801 413.151 480.024 411.842 479.967 410.566C479.739 405.445 480.532 400.33 482.552 395.619L486.481 386.46C487.436 384.236 486.406 381.659 484.181 380.705Z" fill="#1DB776"/>
<path d="M481.443 314.908C483.302 314.166 484.206 312.057 483.464 310.199L480.405 302.546C478.849 298.65 478.204 294.445 478.568 290.265C478.677 289.019 478.464 287.723 477.877 286.498C476.321 283.251 472.527 281.631 469.105 282.751C465.088 284.066 463.073 288.469 464.617 292.333C465.035 293.379 465.67 294.274 466.449 294.987C469.577 297.847 472.103 301.301 473.676 305.237L476.733 312.888C477.477 314.747 479.585 315.651 481.443 314.908Z" fill="#128E5A"/>
<path d="M509.023 383.929C507.079 384.707 506.132 386.913 506.909 388.858L510.109 396.866C511.738 400.942 512.413 405.343 512.032 409.717C511.918 411.021 512.141 412.377 512.756 413.659C514.384 417.057 518.354 418.752 521.935 417.58C526.138 416.203 528.246 411.596 526.631 407.553C526.193 406.458 525.529 405.522 524.714 404.776C521.441 401.783 518.797 398.168 517.151 394.05L513.952 386.043C513.174 384.099 510.968 383.152 509.023 383.929Z" fill="#128E5A"/>
<path d="M467.944 340.081C468.899 337.857 467.869 335.28 465.644 334.325L456.484 330.396C451.82 328.395 447.672 325.35 444.409 321.463C443.437 320.305 442.146 319.379 440.596 318.833C436.488 317.387 431.857 319.246 429.889 323.131C427.579 327.691 429.621 333.18 434.246 335.163C435.498 335.701 436.807 335.923 438.083 335.867C443.204 335.638 448.319 336.431 453.03 338.452L462.189 342.381C464.413 343.335 466.99 342.305 467.944 340.081Z" fill="#1DB776"/>
<path d="M438.084 335.867C443.205 335.639 448.32 336.432 453.031 338.453L462.191 342.382C464.415 343.336 466.992 342.306 467.946 340.081C468.901 337.857 467.871 335.28 465.646 334.326L456.487 330.397C451.776 328.376 446.661 327.583 441.54 327.811C440.264 327.868 438.956 327.645 437.703 327.108C434.724 325.83 432.818 323.097 432.456 320.095C431.402 320.878 430.513 321.903 429.891 323.131C427.58 327.692 429.623 333.18 434.247 335.164C435.5 335.701 436.808 335.924 438.084 335.867Z" fill="#128E5A"/>
<path d="M525.904 329.351C522.787 336.618 526.151 345.036 533.418 348.154C540.685 351.271 549.103 347.907 552.22 340.64C555.337 333.373 551.973 324.955 544.706 321.837C537.439 318.72 529.021 322.084 525.904 329.351Z" fill="#128E5A"/>
<path d="M552.222 340.642C552.825 339.237 553.183 337.788 553.319 336.343C549.346 340.91 542.737 342.614 536.875 340.099C531.014 337.585 527.694 331.622 528.264 325.596C527.312 326.69 526.509 327.948 525.906 329.353C522.789 336.62 526.153 345.038 533.42 348.156C540.687 351.273 549.105 347.909 552.222 340.642Z" fill="#1DB776"/>
<path d="M453.409 333.847C443.23 357.575 454.214 385.062 477.943 395.241C501.671 405.419 529.158 394.435 539.337 370.707C549.515 346.979 538.531 319.492 514.802 309.313C491.074 299.135 463.587 310.119 453.409 333.847Z" fill="#1DB776"/>
<path d="M539.345 370.708C539.928 369.349 540.438 367.978 540.884 366.598C529.485 387.566 503.777 396.782 481.407 387.186C459.038 377.59 447.998 352.612 455.335 329.902C454.643 331.175 454 332.49 453.417 333.848C443.239 357.577 454.223 385.063 477.952 395.242C501.68 405.421 529.167 394.436 539.345 370.708Z" fill="#128E5A"/>
<path d="M495.417 370.945C493.349 375.765 495.581 381.348 500.4 383.415C505.22 385.483 510.804 383.252 512.871 378.432C514.939 373.612 512.708 368.029 507.888 365.961C503.068 363.894 497.485 366.125 495.417 370.945Z" fill="#128E5A"/>
<path d="M512.881 378.433C513.505 376.979 513.735 375.457 513.623 373.982C510.97 376.149 507.232 376.804 503.866 375.36C500.5 373.916 498.398 370.757 498.141 367.34C496.995 368.276 496.05 369.492 495.427 370.945C493.359 375.765 495.591 381.349 500.41 383.416C505.23 385.484 510.814 383.252 512.881 378.433Z" fill="white"/>
<path d="M480.271 327.185C478.871 330.447 480.381 334.227 483.644 335.627C486.907 337.027 490.687 335.516 492.087 332.253C493.486 328.99 491.976 325.211 488.713 323.811C485.45 322.411 481.67 323.922 480.271 327.185Z" fill="white"/>
<path d="M443.914 364.381C442.005 368.83 444.065 373.985 448.514 375.894C452.964 377.802 458.119 375.743 460.027 371.293C461.936 366.843 459.876 361.689 455.427 359.78C450.977 357.871 445.822 359.931 443.914 364.381Z" fill="#1DB776"/>
<path d="M460.032 371.292C460.661 369.824 460.857 368.28 460.679 366.8C458.253 368.61 454.956 369.115 451.975 367.836C448.993 366.557 447.087 363.82 446.726 360.815C445.532 361.706 444.547 362.912 443.917 364.38C442.009 368.83 444.069 373.984 448.518 375.893C452.968 377.802 458.123 375.742 460.032 371.292Z" fill="#128E5A"/>
<path d="M508.569 323.848C506.345 322.894 505.315 320.317 506.269 318.092L510.199 308.932C512.199 304.268 513.107 299.203 512.792 294.138C512.698 292.628 512.996 291.068 513.743 289.604C515.722 285.725 520.359 283.881 524.462 285.339C529.28 287.051 531.582 292.436 529.598 297.06C529.061 298.313 528.266 299.376 527.303 300.214C523.435 303.578 520.275 307.678 518.254 312.389L514.325 321.548C513.371 323.772 510.794 324.802 508.569 323.848Z" fill="#128E5A"/>
<path d="M524.805 364.473C523.85 366.697 524.88 369.274 527.105 370.229L536.265 374.158C540.929 376.159 545.077 379.204 548.34 383.091C549.312 384.249 550.603 385.175 552.154 385.721C556.261 387.167 560.892 385.308 562.86 381.423C565.171 376.863 563.128 371.374 558.503 369.391C557.251 368.853 555.942 368.63 554.666 368.687C549.545 368.916 544.43 368.123 539.719 366.102L530.56 362.173C528.336 361.219 525.759 362.249 524.805 364.473Z" fill="#1DB776"/>
<path d="M552.153 385.719C556.26 387.165 560.891 385.306 562.859 381.422C563.681 379.799 563.95 378.06 563.75 376.402C561.47 378.095 558.417 378.652 555.608 377.663C554.058 377.117 552.767 376.192 551.794 375.033C548.532 371.146 544.383 368.101 539.72 366.1L530.56 362.171C528.335 361.217 525.758 362.246 524.804 364.471C523.849 366.696 524.879 369.273 527.104 370.227L536.264 374.156C540.928 376.157 545.076 379.202 548.339 383.089C549.311 384.247 550.602 385.173 552.153 385.719Z" fill="#128E5A"/>
<path d="M479.261 414.409C479.798 413.157 480.02 411.849 479.963 410.574C479.953 410.348 479.948 410.122 479.942 409.897C477.372 411.832 473.812 412.294 470.687 410.711C468.015 409.357 466.302 406.742 465.964 403.905C465.832 404.02 465.701 404.136 465.567 404.249C464.408 405.222 463.483 406.512 462.937 408.061C461.492 412.167 463.35 416.796 467.233 418.763C471.792 421.073 477.278 419.031 479.261 414.409Z" fill="#128E5A"/>
<defs>
<linearGradient id="paint0_linear" x1="-0.11378" y1="474.181" x2="31.1594" y2="615.457" gradientUnits="userSpaceOnUse">
<stop stop-color="#FFD8D8"/>
<stop offset="1" stop-color="#FFF8F8"/>
</linearGradient>
<linearGradient id="paint1_linear" x1="684.981" y1="214.35" x2="282.159" y2="-76.6883" gradientUnits="userSpaceOnUse">
<stop stop-color="#FFF8F8"/>
<stop offset="1" stop-color="#FFCFCF"/>
</linearGradient>
<linearGradient id="paint2_linear" x1="674.433" y1="148.806" x2="525.072" y2="73.6436" gradientUnits="userSpaceOnUse">
<stop stop-color="#FFD7D7"/>
<stop offset="1" stop-color="#FFF9F9"/>
</linearGradient>
<linearGradient id="paint3_linear" x1="612.714" y1="578.9" x2="18.1408" y2="182.978" gradientUnits="userSpaceOnUse">
<stop stop-color="#FFCFCF"/>
<stop offset="1" stop-color="#FFF8F8"/>
</linearGradient>
</defs>
</svg>
